<svg width="207" height="115" viewBox="0 0 207 115" fill="none" xmlns="http://www.w3.org/2000/svg">
<path d="M92.0057 27.8804C90.8719 28.7513 89.66 29.5278 88.3865 30.2015C88.3536 29.7783 88.3413 29.347 88.3413 28.9115C88.3413 27.1739 88.5714 25.4444 89.015 23.7683C89.1588 23.5506 89.3108 23.337 89.4628 23.1274C90.1735 24.7789 91.0239 26.3687 92.0057 27.8804Z" fill="#C8D5DE"/>
<path d="M111.934 41.5643C109.292 44.3988 106.039 46.6213 102.457 48.0344C94.9512 45.7175 89.5286 39.2884 88.5181 31.5201C89.9928 30.7725 91.3937 29.8934 92.7 28.9033C97.2928 35.3899 104.227 39.9416 111.934 41.5643Z" fill="#C8D5DE"/>
<path d="M92.9712 27.108C91.936 25.4977 91.0569 23.7887 90.3462 22.0223C90.6954 21.6197 91.061 21.2335 91.4471 20.8679C92.8233 22.1209 94.3022 23.267 95.8715 24.2612C94.98 25.2841 94.0106 26.2371 92.9712 27.108Z" fill="#B2C3CE"/>
<path d="M118.486 28.5706C117.685 32.9498 115.758 37.0496 112.878 40.4962C105.168 39.0666 98.2087 34.5889 93.6611 28.1311C94.8442 27.1533 95.9411 26.0729 96.9393 24.9062C101.705 27.6668 107.131 29.1211 112.669 29.1211C114.629 29.1211 116.58 28.928 118.486 28.5706Z" fill="#B2C3CE"/>
<path d="M100.657 16.2341C99.7 18.8058 98.3444 21.1843 96.6683 23.3041C95.1442 22.3551 93.7064 21.25 92.3672 20.0382C94.6964 18.0951 97.5392 16.7476 100.657 16.2341Z" fill="#9DB2BF"/>
<path d="M118.872 25.2554C118.839 25.9414 118.77 26.6193 118.683 27.2765C116.716 27.6791 114.699 27.8886 112.669 27.8886C107.419 27.8886 102.272 26.5248 97.7324 23.9367C99.5728 21.5869 101.035 18.929 102.025 16.0616C102.51 16.0205 103.003 16 103.5 16C110.155 16 115.947 19.7547 118.872 25.2554Z" fill="#9DB2BF"/>
<path d="M87.1951 30.793C86.8788 30.945 86.5584 31.0847 86.2297 31.2202C86.3982 29.8934 86.7145 28.6075 87.1664 27.3875C87.1294 27.8927 87.1089 28.4021 87.1089 28.9115C87.1089 29.5483 87.1376 30.1809 87.1951 30.793Z" fill="#DDE2E6"/>
<path d="M100.591 48.6876C99.396 49.0532 98.1801 49.3367 96.9477 49.5298C90.5884 46.9335 86.0942 40.6852 86.0942 33.4058C86.0942 33.1346 86.1025 32.8635 86.1107 32.5965C86.5297 32.4363 86.9446 32.2596 87.3513 32.0789C88.4769 39.6212 93.5298 45.9229 100.591 48.6876Z" fill="#DDE2E6"/>
<path d="M103.5 50.8114C102.066 50.8114 100.67 50.6347 99.3345 50.3061C100.477 50.0309 101.606 49.6858 102.699 49.2627C106.877 47.6564 110.64 44.9985 113.581 41.5765C116.933 37.6739 119.098 32.9373 119.842 27.8927C119.858 27.7818 119.871 27.6626 119.887 27.5476C120.544 29.3798 120.906 31.3516 120.906 33.4057C120.906 43.002 113.096 50.8114 103.5 50.8114Z" fill="#DDE2E6"/>
<path d="M43.4087 57.7366H48.607C49.1463 57.7366 49.6358 57.7864 50.0797 57.8859C50.5236 57.9855 50.9012 58.1431 51.2165 58.3547C51.5318 58.5704 51.7724 58.8484 51.9466 59.1969C52.1209 59.5454 52.208 59.9685 52.208 60.4664C52.208 61.1551 52.0171 61.6819 51.6396 62.0553C51.2621 62.4287 50.7062 62.6984 49.9802 62.8685V62.8975C50.3369 62.9265 50.6771 62.9971 50.9966 63.1049C51.316 63.2128 51.594 63.3704 51.8346 63.5696C52.0752 63.7687 52.2619 64.0135 52.3947 64.308C52.5274 64.6026 52.598 64.9428 52.598 65.3328C52.598 65.8804 52.4984 66.345 52.2993 66.7309C52.1001 67.1125 51.8139 67.4278 51.4405 67.6726C51.0671 67.9174 50.6108 68.0916 50.0756 68.2036C49.5363 68.3115 48.9306 68.3696 48.2543 68.3696H43.4087V57.7366ZM45.9477 61.9184H48.1589C48.5862 61.9184 48.9264 61.8313 49.1753 61.657C49.4242 61.4828 49.5487 61.2007 49.5487 60.8149C49.5487 60.3668 49.4284 60.0723 49.1919 59.9271C48.9513 59.7819 48.6111 59.7113 48.163 59.7113H45.9518V61.9226L45.9477 61.9184ZM45.9767 66.399H48.1423C48.4908 66.399 48.7812 66.3658 49.0177 66.3035C49.25 66.2372 49.4367 66.15 49.5694 66.0422C49.7022 65.9343 49.7976 65.8016 49.8516 65.6481C49.9055 65.4946 49.9345 65.3328 49.9345 65.1627C49.9345 64.7146 49.8391 64.391 49.6524 64.1919C49.4616 63.9927 49.1214 63.8932 48.6235 63.8932H45.9809V66.4031L45.9767 66.399Z" fill="#536D82"/>
<path d="M57.8666 60.2175C58.4848 60.2175 59.0532 60.3088 59.5676 60.4955C60.0862 60.678 60.5301 60.9518 60.9035 61.3086C61.2768 61.6654 61.5672 62.1052 61.7788 62.6237C61.9863 63.1423 62.0941 63.7356 62.0941 64.3994C62.0941 65.0632 61.9904 65.6606 61.7788 66.175C61.5714 66.6936 61.2768 67.1292 60.9035 67.4901C60.5301 67.8511 60.0862 68.1207 59.5676 68.3033C59.049 68.4858 58.4806 68.5812 57.8666 68.5812C57.2526 68.5812 56.6801 68.4899 56.1657 68.3033C55.6471 68.1207 55.2032 67.8469 54.8298 67.4901C54.4564 67.1333 54.166 66.6936 53.9545 66.175C53.7429 65.6564 53.6392 65.0632 53.6392 64.3994C53.6392 63.7356 53.7429 63.1382 53.9545 62.6237C54.1619 62.1052 54.4564 61.6696 54.8298 61.3086C55.2032 60.9518 55.6471 60.678 56.1657 60.4955C56.6843 60.3129 57.2526 60.2175 57.8666 60.2175ZM57.8666 62.0097C57.5389 62.0097 57.2526 62.0678 57.0162 62.1881C56.7797 62.3085 56.5806 62.4744 56.4271 62.6901C56.2736 62.9059 56.1574 63.1589 56.0827 63.4535C56.008 63.748 55.9707 64.0633 55.9707 64.4035C55.9707 64.7437 56.008 65.059 56.0827 65.3536C56.1574 65.6481 56.2736 65.9012 56.4271 66.1169C56.5806 66.3326 56.7797 66.4986 57.0162 66.6189C57.2526 66.7392 57.5389 66.7973 57.8666 66.7973C58.1944 66.7973 58.4806 66.7351 58.7171 66.6106C58.9577 66.4861 59.1527 66.3161 59.3062 66.0962C59.4597 65.8763 59.5759 65.6149 59.6506 65.3121C59.7252 65.0092 59.7626 64.6773 59.7626 64.3205C59.7626 64.0011 59.7252 63.7024 59.6506 63.4244C59.5759 63.1465 59.4597 62.9017 59.3062 62.6943C59.1527 62.4868 58.9536 62.3209 58.7171 62.2006C58.4765 62.0803 58.1944 62.0222 57.8666 62.0222V62.0097Z" fill="#536D82"/>
<path d="M63.6167 60.425H65.9482V61.2299C66.2055 60.9893 66.5291 60.7984 66.919 60.6532C67.309 60.508 67.7114 60.4209 68.1304 60.3918L68.147 62.4537L67.894 62.4828C67.197 62.5616 66.6991 62.6861 66.4004 62.8561C66.1017 63.0262 65.9524 63.3291 65.9524 63.7689V68.3697H63.6208V60.425H63.6167Z" fill="#536D82"/>
<path d="M69.4248 59.5288V57.7366H71.7563V59.5288H69.4248ZM71.7563 60.4249V68.3696H69.4248V60.4249H71.7563Z" fill="#536D82"/>
<path d="M73.8474 60.425H76.179V61.1261C76.3283 60.9477 76.4984 60.7983 76.6851 60.6863C76.8759 60.5702 77.0751 60.4789 77.2825 60.4084C77.4899 60.3378 77.6974 60.2881 77.9006 60.259C78.1039 60.23 78.2948 60.2134 78.4773 60.2134C78.9461 60.2134 79.3319 60.2756 79.6431 60.4001C79.9501 60.5245 80.199 60.6946 80.3815 60.9062C80.5641 61.1219 80.6968 61.3626 80.7715 61.6364C80.8462 61.9102 80.8835 62.1964 80.8835 62.4951V68.3655H78.552V63.3912C78.552 63.0013 78.4732 62.6901 78.3197 62.4495C78.1662 62.2089 77.8633 62.0927 77.4153 62.0927C76.9672 62.0927 76.6229 62.2255 76.4445 62.4868C76.2661 62.7524 76.1748 63.0635 76.1748 63.4203V68.3655H73.8433V60.4208L73.8474 60.425Z" fill="#536D82"/>
<path d="M89.9441 60.425V68.3862C89.9441 68.8052 89.8777 69.162 89.7491 69.4524C89.6205 69.747 89.4463 69.9918 89.2347 70.1826C89.019 70.3776 88.7783 70.5269 88.5045 70.6389C88.2307 70.7468 87.9528 70.8298 87.6665 70.8837C87.3844 70.9376 87.1064 70.9708 86.8368 70.9791C86.5671 70.9874 86.3348 70.9957 86.1356 70.9957C84.9325 70.9957 84.024 70.78 83.41 70.3527C82.796 69.9254 82.4848 69.2242 82.4765 68.2452H84.8952C84.9035 68.6849 85.0279 68.9961 85.2603 69.1869C85.4926 69.3777 85.8203 69.469 86.2394 69.469C86.4592 69.469 86.6584 69.4524 86.8368 69.4234C87.0152 69.3943 87.1687 69.3321 87.3014 69.2367C87.43 69.1413 87.5296 69.0044 87.5918 68.826C87.6582 68.6476 87.6872 68.4111 87.6872 68.1249V67.2122C87.5586 67.3325 87.4051 67.4362 87.2226 67.5191C87.0442 67.6021 86.8534 67.6726 86.6542 67.7266C86.4551 67.7805 86.256 67.8179 86.0568 67.8386C85.8577 67.8593 85.6668 67.8676 85.4885 67.8676C84.9325 67.8676 84.4554 67.7639 84.0613 67.5523C83.6672 67.3408 83.3477 67.067 83.1071 66.7143C82.8624 66.3658 82.684 65.9634 82.5678 65.5029C82.4516 65.0466 82.3977 64.5653 82.3977 64.0675C82.3977 63.5696 82.4641 63.105 82.5927 62.6403C82.7213 62.1757 82.9163 61.765 83.1735 61.3999C83.4307 61.0348 83.7543 60.7444 84.1443 60.5245C84.5343 60.3046 84.9906 60.1968 85.5175 60.1968C85.9572 60.1968 86.3597 60.2549 86.733 60.3752C87.1064 60.4955 87.4591 60.7154 87.7868 61.0307V60.4042H89.9358L89.9441 60.425ZM87.7038 64.055C87.7038 63.6568 87.6582 63.3207 87.5711 63.0469C87.4798 62.7731 87.3636 62.5532 87.2184 62.3831C87.0732 62.213 86.9114 62.0927 86.733 62.0263C86.5547 61.9558 86.3763 61.9226 86.1937 61.9226C86.0112 61.9226 85.8369 61.9517 85.6544 62.0139C85.476 62.072 85.3184 62.184 85.1856 62.3416C85.0528 62.4993 84.9408 62.7192 84.8579 62.9971C84.7749 63.2751 84.7292 63.6277 84.7292 64.0592C84.7292 64.2998 84.7458 64.5446 84.7832 64.7893C84.8205 65.0341 84.8869 65.2664 84.9906 65.478C85.0943 65.6896 85.2395 65.8555 85.4221 65.9841C85.6046 66.1128 85.8535 66.1791 86.1605 66.1791C86.5298 66.1791 86.816 66.1086 87.0276 65.9634C87.235 65.8182 87.3927 65.6398 87.4923 65.4241C87.5918 65.2084 87.6499 64.9802 87.6706 64.7354C87.6914 64.4906 87.6997 64.2666 87.6997 64.055H87.7038Z" fill="#536D82"/>
<path d="M103.27 61.2796C103.079 60.7818 102.78 60.3918 102.373 60.1056C101.967 59.8235 101.527 59.6783 101.058 59.6783C100.689 59.6783 100.345 59.7446 100.029 59.8733C99.71 60.0019 99.4321 60.201 99.1914 60.4707C98.9508 60.7403 98.7641 61.0888 98.6314 61.5161C98.4986 61.9434 98.4281 62.4579 98.4281 63.0553C98.4281 63.4452 98.4696 63.8352 98.5567 64.2335C98.6397 64.6318 98.789 64.9968 98.9965 65.3246C99.2039 65.6523 99.486 65.9178 99.8345 66.1253C100.183 66.3286 100.623 66.4323 101.15 66.4323C101.328 66.4323 101.523 66.3991 101.73 66.3369C101.938 66.2705 102.145 66.1751 102.349 66.0464C102.552 65.9178 102.739 65.7602 102.909 65.5776C103.079 65.3951 103.216 65.1835 103.328 64.9429L105.435 65.9593C104.979 66.7974 104.373 67.457 103.626 67.9465C102.88 68.4361 102.054 68.6767 101.145 68.6767C100.299 68.6767 99.5441 68.5232 98.8761 68.2203C98.2082 67.9175 97.6481 67.5068 97.1876 66.9882C96.7313 66.4696 96.3786 65.8722 96.1339 65.196C95.8891 64.5197 95.7688 63.8062 95.7688 63.0594C95.7688 62.3127 95.885 61.5991 96.1131 60.9229C96.3413 60.2466 96.6774 59.6492 97.113 59.1306C97.5527 58.6121 98.092 58.2013 98.7351 57.8985C99.3781 57.5956 100.112 57.4421 100.938 57.4421C101.457 57.4421 101.934 57.5044 102.373 57.6288C102.813 57.7533 103.211 57.9358 103.577 58.1723C103.942 58.4088 104.269 58.7033 104.568 59.0477C104.867 59.392 105.141 59.782 105.39 60.2217L103.27 61.2838V61.2796Z" fill="#536D82"/>
<path d="M110.422 60.2175C111.04 60.2175 111.608 60.3088 112.123 60.4955C112.641 60.678 113.085 60.9518 113.459 61.3086C113.832 61.6654 114.122 62.1052 114.334 62.6237C114.541 63.1423 114.649 63.7356 114.649 64.3994C114.649 65.0632 114.546 65.6606 114.334 66.175C114.127 66.6936 113.832 67.1292 113.459 67.4901C113.085 67.8511 112.641 68.1207 112.123 68.3033C111.604 68.4858 111.036 68.5812 110.422 68.5812C109.808 68.5812 109.235 68.4899 108.721 68.3033C108.202 68.1207 107.758 67.8469 107.385 67.4901C107.012 67.1333 106.721 66.6936 106.51 66.175C106.298 65.6564 106.194 65.0632 106.194 64.3994C106.194 63.7356 106.298 63.1382 106.51 62.6237C106.717 62.1052 107.012 61.6696 107.385 61.3086C107.758 60.9518 108.202 60.678 108.721 60.4955C109.239 60.3129 109.808 60.2175 110.422 60.2175ZM110.422 62.0097C110.094 62.0097 109.808 62.0678 109.571 62.1881C109.335 62.3085 109.136 62.4744 108.982 62.6901C108.829 62.9059 108.713 63.1589 108.638 63.4535C108.563 63.748 108.526 64.0633 108.526 64.4035C108.526 64.7437 108.563 65.059 108.638 65.3536C108.713 65.6481 108.829 65.9012 108.982 66.1169C109.136 66.3326 109.335 66.4986 109.571 66.6189C109.808 66.7392 110.094 66.7973 110.422 66.7973C110.75 66.7973 111.036 66.7351 111.272 66.6106C111.513 66.4861 111.708 66.3161 111.861 66.0962C112.015 65.8763 112.131 65.6149 112.206 65.3121C112.28 65.0092 112.318 64.6773 112.318 64.3205C112.318 64.0011 112.28 63.7024 112.206 63.4244C112.131 63.1465 112.015 62.9017 111.861 62.6943C111.708 62.4868 111.509 62.3209 111.272 62.2006C111.032 62.0803 110.75 62.0222 110.422 62.0222V62.0097Z" fill="#536D82"/>
<path d="M116.172 60.425H118.503V61.1261C118.653 60.9477 118.823 60.7983 119.01 60.6863C119.2 60.5702 119.4 60.4789 119.607 60.4084C119.814 60.3378 120.022 60.2881 120.225 60.259C120.428 60.23 120.619 60.2134 120.802 60.2134C121.258 60.2134 121.661 60.3047 122.005 60.483C122.349 60.6614 122.648 60.927 122.909 61.2754C123.287 60.8855 123.689 60.6117 124.121 60.454C124.552 60.2964 124.996 60.2134 125.465 60.2134C125.656 60.2134 125.892 60.2341 126.174 60.2798C126.456 60.3254 126.726 60.4208 126.979 60.5702C127.232 60.7195 127.452 60.9311 127.635 61.2049C127.817 61.4787 127.913 61.8438 127.913 62.3043V68.3696H125.581V63.7231C125.581 63.1548 125.494 62.7441 125.32 62.4827C125.145 62.2255 124.834 62.0927 124.386 62.0927C123.996 62.0927 123.706 62.2213 123.507 62.4827C123.308 62.7399 123.208 63.076 123.208 63.4825V68.3655H120.876V63.3912C120.876 63.0013 120.798 62.6901 120.644 62.4495C120.491 62.2089 120.188 62.0927 119.74 62.0927C119.292 62.0927 118.947 62.2255 118.769 62.4868C118.591 62.7524 118.499 63.0635 118.499 63.4203V68.3655H116.168V60.4208L116.172 60.425Z" fill="#536D82"/>
<path d="M129.896 60.425H132.045V61.1551H132.074C132.352 60.7983 132.684 60.5494 133.065 60.4167C133.447 60.2839 133.825 60.2134 134.194 60.2134C134.663 60.2134 135.102 60.2964 135.517 60.4664C135.932 60.6365 136.293 60.8855 136.6 61.2132C136.907 61.5409 137.152 61.9517 137.33 62.4371C137.509 62.9266 137.6 63.4867 137.6 64.1256C137.6 65.6274 137.305 66.7475 136.712 67.4777C136.119 68.2078 135.285 68.5771 134.21 68.5771C133.443 68.5771 132.792 68.3364 132.252 67.8594H132.223V70.9957H129.892V60.4208L129.896 60.425ZM132.169 64.3994C132.169 64.7396 132.198 65.059 132.252 65.3619C132.306 65.6647 132.397 65.9302 132.53 66.1543C132.659 66.3783 132.825 66.5567 133.032 66.6853C133.235 66.8139 133.488 66.8803 133.787 66.8803C134.086 66.8803 134.339 66.8139 134.542 66.677C134.746 66.5442 134.911 66.3575 135.044 66.1169C135.173 65.8763 135.264 65.59 135.322 65.2581C135.376 64.9263 135.405 64.5529 135.405 64.1463C135.405 63.8766 135.376 63.6111 135.322 63.3456C135.268 63.0801 135.177 62.8436 135.053 62.6279C134.928 62.4122 134.762 62.2421 134.559 62.1135C134.356 61.9849 134.107 61.9185 133.82 61.9185C133.534 61.9185 133.281 61.9849 133.074 62.1135C132.866 62.2421 132.692 62.4205 132.559 62.6445C132.426 62.8685 132.327 63.134 132.269 63.4369C132.211 63.7397 132.178 64.0633 132.178 64.3994H132.169Z" fill="#536D82"/>
<path d="M145.83 66.7143C145.83 66.9923 145.839 67.2785 145.86 67.5648C145.88 67.8552 145.938 68.1207 146.038 68.3696H143.889C143.839 68.2286 143.806 68.0917 143.785 67.9589C143.764 67.8262 143.752 67.6893 143.74 67.5482H143.711C143.611 67.7059 143.47 67.8511 143.292 67.9755C143.113 68.1 142.91 68.2078 142.686 68.295C142.462 68.3862 142.229 68.4526 141.993 68.5024C141.752 68.5522 141.528 68.5771 141.321 68.5771C140.943 68.5771 140.591 68.5231 140.267 68.4194C139.944 68.3157 139.661 68.1622 139.425 67.9631C139.188 67.7639 138.998 67.5192 138.865 67.2246C138.732 66.9301 138.662 66.594 138.662 66.2165C138.662 65.7394 138.753 65.3328 138.94 65.0009C139.122 64.669 139.392 64.3869 139.744 64.1629C140.097 63.9389 140.524 63.7563 141.03 63.6194C141.532 63.4784 142.105 63.3664 142.74 63.2751L143.59 63.1548V62.4993C143.59 62.2006 143.487 61.9849 143.275 61.8479C143.063 61.711 142.802 61.6447 142.483 61.6447C142.105 61.6447 141.819 61.7235 141.632 61.877C141.441 62.0305 141.317 62.3085 141.259 62.7067H139.018C139.039 62.1384 139.172 61.6903 139.413 61.3543C139.657 61.0224 139.944 60.7693 140.28 60.5992C140.611 60.4291 140.964 60.3212 141.333 60.2798C141.703 60.2341 142.022 60.2134 142.288 60.2134C142.827 60.2134 143.312 60.2466 143.752 60.3171C144.192 60.3876 144.565 60.5121 144.872 60.6905C145.179 60.8689 145.416 61.1053 145.582 61.3999C145.748 61.6944 145.826 62.0637 145.826 62.5117V66.7102L145.83 66.7143ZM143.59 64.5031L142.022 64.9511C141.732 65.03 141.474 65.142 141.246 65.2872C141.018 65.4324 140.902 65.6647 140.902 65.98C140.902 66.2953 141.01 66.5276 141.23 66.6687C141.45 66.8097 141.703 66.8761 141.993 66.8761C142.449 66.8761 142.831 66.7226 143.134 66.4198C143.437 66.1169 143.59 65.6606 143.59 65.0549V64.5031Z" fill="#536D82"/>
<path d="M147.984 60.425H150.315V61.1261C150.465 60.9477 150.635 60.7983 150.822 60.6863C151.012 60.5702 151.212 60.4789 151.419 60.4084C151.626 60.3378 151.834 60.2881 152.037 60.259C152.24 60.23 152.431 60.2134 152.614 60.2134C153.083 60.2134 153.468 60.2756 153.78 60.4001C154.087 60.5245 154.335 60.6946 154.518 60.9062C154.701 61.1219 154.833 61.3626 154.908 61.6364C154.983 61.9102 155.02 62.1964 155.02 62.4951V68.3655H152.688V63.3912C152.688 63.0013 152.61 62.6901 152.456 62.4495C152.303 62.2089 152 62.0927 151.552 62.0927C151.104 62.0927 150.759 62.2255 150.581 62.4868C150.403 62.7524 150.311 63.0635 150.311 63.4203V68.3655H147.98V60.4208L147.984 60.425Z" fill="#536D82"/>
<path d="M156.675 69.1787C156.816 69.187 156.949 69.1953 157.078 69.1995C157.206 69.2036 157.335 69.2077 157.468 69.2077C157.816 69.2077 158.082 69.1663 158.268 69.0874C158.455 69.0086 158.546 68.8551 158.546 68.6228C158.546 68.5647 158.538 68.4817 158.517 68.378C158.497 68.2743 158.438 68.071 158.339 67.7723L156.007 60.425H158.455L159.741 66.4904H159.77L161.069 60.425H163.591L160.799 68.8925C160.699 69.1912 160.587 69.4691 160.463 69.7305C160.339 69.9877 160.189 70.2117 160.015 70.4026C159.841 70.5934 159.633 70.7386 159.388 70.8423C159.144 70.946 158.853 71 158.513 71H156.675V69.1787Z" fill="#536D82"/>
<path d="M52.4618 93V83.844H54.4078L55.9758 88.324C56.0785 88.6133 56.1718 88.9027 56.2558 89.192C56.3398 89.472 56.4238 89.78 56.5078 90.116H56.5638C56.6478 89.78 56.7271 89.472 56.8018 89.192C56.8858 88.9027 56.9745 88.6133 57.0678 88.324L58.6358 83.844H60.5678V93H59.0698V88.828C59.0698 88.5387 59.0791 88.2073 59.0978 87.834C59.1258 87.4607 59.1585 87.092 59.1958 86.728C59.2331 86.3547 59.2705 86.028 59.3078 85.748H59.2518L58.5238 88.072L57.0398 92.16H55.9478L54.4638 88.072L53.7638 85.748H53.7078C53.7451 86.028 53.7778 86.3547 53.8058 86.728C53.8431 87.092 53.8711 87.4607 53.8898 87.834C53.9178 88.2073 53.9318 88.5387 53.9318 88.828V93H52.4618ZM65.7074 93.168C65.0634 93.168 64.4801 93.028 63.9574 92.748C63.4441 92.4587 63.0381 92.048 62.7394 91.516C62.4408 90.9747 62.2914 90.3213 62.2914 89.556C62.2914 88.8093 62.4454 88.17 62.7534 87.638C63.0614 87.0967 63.4581 86.6813 63.9434 86.392C64.4288 86.1027 64.9421 85.958 65.4834 85.958C66.1088 85.958 66.6314 86.098 67.0514 86.378C67.4714 86.658 67.7841 87.0453 67.9894 87.54C68.2041 88.0253 68.3114 88.5853 68.3114 89.22C68.3114 89.3693 68.3021 89.514 68.2834 89.654C68.2741 89.794 68.2554 89.9293 68.2274 90.06H63.4954V88.828H66.8834C66.8834 88.3333 66.7714 87.946 66.5474 87.666C66.3234 87.3767 65.9781 87.232 65.5114 87.232C65.2501 87.232 64.9934 87.302 64.7414 87.442C64.4988 87.582 64.2934 87.82 64.1254 88.156C63.9668 88.492 63.8874 88.9587 63.8874 89.556C63.8874 90.0973 63.9808 90.5407 64.1674 90.886C64.3541 91.222 64.6014 91.474 64.9094 91.642C65.2174 91.8007 65.5488 91.88 65.9034 91.88C66.2021 91.88 66.4821 91.838 66.7434 91.754C67.0141 91.67 67.2661 91.5533 67.4994 91.404L68.0594 92.44C67.7421 92.664 67.3781 92.8413 66.9674 92.972C66.5661 93.1027 66.1461 93.168 65.7074 93.168ZM69.8491 93V86.126H71.1791L71.2911 87.344H71.3471C71.5898 86.896 71.8791 86.5553 72.2151 86.322C72.5605 86.0793 72.9198 85.958 73.2931 85.958C73.4705 85.958 73.6198 85.9673 73.7411 85.986C73.8625 86.0047 73.9745 86.042 74.0771 86.098L73.7551 87.47C73.6431 87.442 73.5405 87.4233 73.4471 87.414C73.3538 87.3953 73.2325 87.386 73.0831 87.386C72.8125 87.386 72.5278 87.4933 72.2291 87.708C71.9305 87.9133 71.6738 88.2773 71.4591 88.8V93H69.8491ZM77.8331 93.168C77.1984 93.168 76.6291 93.028 76.1251 92.748C75.6211 92.4587 75.2198 92.048 74.9211 91.516C74.6318 90.9747 74.4871 90.326 74.4871 89.57C74.4871 88.8047 74.6458 88.156 74.9631 87.624C75.2804 87.0827 75.7004 86.672 76.2231 86.392C76.7551 86.1027 77.3244 85.958 77.9311 85.958C78.3698 85.958 78.7524 86.0327 79.0791 86.182C79.4151 86.322 79.7044 86.504 79.9471 86.728L79.1771 87.736C79.0278 87.596 78.8551 87.484 78.6591 87.4C78.4724 87.316 78.2578 87.274 78.0151 87.274C77.6511 87.274 77.3291 87.372 77.0491 87.568C76.7691 87.7547 76.5451 88.0207 76.3771 88.366C76.2184 88.702 76.1391 89.1033 76.1391 89.57C76.1391 90.0273 76.2184 90.4287 76.3771 90.774C76.5358 91.11 76.7504 91.376 77.0211 91.572C77.3011 91.7587 77.6231 91.852 77.9871 91.852C78.2578 91.852 78.5098 91.8007 78.7431 91.698C78.9858 91.5953 79.2004 91.4647 79.3871 91.306L80.0451 92.3C79.7558 92.5613 79.4198 92.7713 79.0371 92.93C78.6638 93.0887 78.2624 93.168 77.8331 93.168ZM82.9312 93.168C82.5298 93.168 82.1752 93.084 81.8672 92.916C81.5592 92.748 81.3165 92.5147 81.1392 92.216C80.9712 91.908 80.8872 91.5533 80.8872 91.152C80.8872 90.3773 81.2092 89.794 81.8532 89.402C82.5065 89.0007 83.5378 88.7253 84.9472 88.576C84.9378 88.3427 84.8912 88.128 84.8072 87.932C84.7325 87.736 84.6018 87.582 84.4152 87.47C84.2378 87.3487 83.9952 87.288 83.6872 87.288C83.3512 87.288 83.0198 87.3487 82.6932 87.47C82.3758 87.5913 82.0632 87.7453 81.7552 87.932L81.1672 86.84C81.4192 86.6813 81.6945 86.5367 81.9932 86.406C82.2918 86.266 82.6092 86.1587 82.9452 86.084C83.2812 86 83.6312 85.958 83.9952 85.958C84.5645 85.958 85.0358 86.0747 85.4092 86.308C85.7918 86.532 86.0765 86.868 86.2632 87.316C86.4592 87.7547 86.5572 88.296 86.5572 88.94V93H85.2272L85.1152 92.244H85.0592C84.7418 92.5053 84.4105 92.7247 84.0652 92.902C83.7198 93.0793 83.3418 93.168 82.9312 93.168ZM83.4352 91.852C83.7152 91.852 83.9718 91.796 84.2052 91.684C84.4478 91.5627 84.6952 91.3853 84.9472 91.152V89.696C84.3218 89.7707 83.8272 89.8687 83.4632 89.99C83.0992 90.1113 82.8378 90.2607 82.6792 90.438C82.5298 90.606 82.4552 90.8067 82.4552 91.04C82.4552 91.3293 82.5485 91.5393 82.7352 91.67C82.9218 91.7913 83.1552 91.852 83.4352 91.852ZM88.4839 93V86.126H89.8139L89.9259 87.05H89.9819C90.2899 86.7513 90.6259 86.4947 90.9899 86.28C91.3539 86.0653 91.7692 85.958 92.2359 85.958C92.9732 85.958 93.5099 86.196 93.8459 86.672C94.1819 87.148 94.3499 87.82 94.3499 88.688V93H92.7399V88.898C92.7399 88.3287 92.6559 87.9273 92.4879 87.694C92.3199 87.4607 92.0446 87.344 91.6619 87.344C91.3632 87.344 91.0972 87.4187 90.8639 87.568C90.6399 87.708 90.3832 87.918 90.0939 88.198V93H88.4839ZM98.2359 93.168C97.7599 93.168 97.2886 93.0793 96.8219 92.902C96.3646 92.7247 95.9679 92.4773 95.6319 92.16L96.3459 91.236C96.6539 91.488 96.9666 91.67 97.2839 91.782C97.6012 91.894 97.9372 91.95 98.2919 91.95C98.6652 91.95 98.9406 91.8707 99.1179 91.712C99.2952 91.5533 99.3839 91.3573 99.3839 91.124C99.3839 90.9373 99.3139 90.7787 99.1739 90.648C99.0432 90.5173 98.8706 90.4053 98.6559 90.312C98.4412 90.2187 98.2032 90.1253 97.9419 90.032C97.6059 89.9107 97.2932 89.766 97.0039 89.598C96.7146 89.4207 96.4766 89.206 96.2899 88.954C96.1126 88.6927 96.0239 88.38 96.0239 88.016C96.0239 87.4093 96.2479 86.9147 96.6959 86.532C97.1439 86.1493 97.7506 85.958 98.5159 85.958C98.9826 85.958 99.4119 86.0373 99.8039 86.196C100.196 86.3453 100.532 86.5413 100.812 86.784L100.098 87.694C99.8552 87.5167 99.6079 87.386 99.3559 87.302C99.1039 87.218 98.8379 87.176 98.5579 87.176C98.2126 87.176 97.9559 87.2507 97.7879 87.4C97.6199 87.5493 97.5359 87.7267 97.5359 87.932C97.5359 88.1 97.5872 88.2447 97.6899 88.366C97.8019 88.478 97.9606 88.5807 98.1659 88.674C98.3712 88.758 98.6186 88.8467 98.9079 88.94C99.2626 89.0613 99.5939 89.2107 99.9019 89.388C100.21 89.556 100.453 89.7753 100.63 90.046C100.817 90.3073 100.91 90.6387 100.91 91.04C100.91 91.432 100.807 91.7913 100.602 92.118C100.397 92.4353 100.093 92.692 99.6919 92.888C99.2999 93.0747 98.8146 93.168 98.2359 93.168ZM108.72 93.168C108.188 93.168 107.707 93.0933 107.278 92.944C106.858 92.7947 106.494 92.5567 106.186 92.23C105.887 91.9033 105.654 91.4787 105.486 90.956C105.327 90.4333 105.248 89.8033 105.248 89.066V83.844H106.872V89.192C106.872 89.836 106.947 90.3447 107.096 90.718C107.255 91.0913 107.474 91.3573 107.754 91.516C108.034 91.6747 108.356 91.754 108.72 91.754C109.093 91.754 109.42 91.6747 109.7 91.516C109.989 91.3573 110.213 91.0913 110.372 90.718C110.54 90.3447 110.624 89.836 110.624 89.192V83.844H112.178V89.066C112.178 89.8033 112.099 90.4333 111.94 90.956C111.781 91.4787 111.548 91.9033 111.24 92.23C110.941 92.5567 110.577 92.7947 110.148 92.944C109.728 93.0933 109.252 93.168 108.72 93.168ZM117.001 93.168C116.366 93.168 115.764 93.0513 115.195 92.818C114.635 92.5847 114.136 92.2533 113.697 91.824L114.579 90.76C114.906 91.0773 115.284 91.3247 115.713 91.502C116.152 91.67 116.59 91.754 117.029 91.754C117.552 91.754 117.948 91.6467 118.219 91.432C118.49 91.2173 118.625 90.9327 118.625 90.578C118.625 90.326 118.564 90.1253 118.443 89.976C118.322 89.8173 118.154 89.682 117.939 89.57C117.734 89.458 117.491 89.346 117.211 89.234L115.951 88.688C115.652 88.5573 115.358 88.3893 115.069 88.184C114.789 87.9693 114.556 87.708 114.369 87.4C114.192 87.0827 114.103 86.7 114.103 86.252C114.103 85.7667 114.234 85.3327 114.495 84.95C114.766 84.558 115.13 84.25 115.587 84.026C116.054 83.7927 116.586 83.676 117.183 83.676C117.734 83.676 118.252 83.7787 118.737 83.984C119.232 84.18 119.652 84.4507 119.997 84.796L119.143 85.86C118.844 85.6173 118.532 85.4307 118.205 85.3C117.878 85.16 117.538 85.09 117.183 85.09C116.754 85.09 116.404 85.188 116.133 85.384C115.872 85.5707 115.741 85.832 115.741 86.168C115.741 86.4013 115.806 86.5973 115.937 86.756C116.077 86.9053 116.259 87.036 116.483 87.148C116.716 87.2507 116.954 87.3533 117.197 87.456L118.443 87.974C118.807 88.1327 119.129 88.3193 119.409 88.534C119.689 88.7487 119.904 89.01 120.053 89.318C120.212 89.626 120.291 90.004 120.291 90.452C120.291 90.9467 120.16 91.3993 119.899 91.81C119.638 92.2207 119.26 92.552 118.765 92.804C118.28 93.0467 117.692 93.168 117.001 93.168ZM120.766 93L123.748 83.844H125.652L128.634 93H126.926L125.526 88.128C125.377 87.6427 125.232 87.1433 125.092 86.63C124.961 86.1167 124.831 85.608 124.7 85.104H124.644C124.523 85.6173 124.392 86.1307 124.252 86.644C124.121 87.148 123.981 87.6427 123.832 88.128L122.418 93H120.766ZM122.53 90.522V89.248H126.842V90.522H122.53ZM132.565 93V83.844H134.189V91.628H137.997V93H132.565ZM141.547 93.14C140.753 93.14 140.189 92.9113 139.853 92.454C139.526 91.9873 139.363 91.3853 139.363 90.648V87.4H138.383V86.196L139.447 86.126L139.643 83.97H140.987V86.126H142.737V87.4H140.987V90.648C140.987 91.0493 141.066 91.3527 141.225 91.558C141.383 91.754 141.626 91.852 141.953 91.852C142.074 91.852 142.195 91.8427 142.317 91.824C142.438 91.8053 142.555 91.768 142.667 91.712L142.961 92.846C142.783 92.93 142.573 93 142.331 93.056C142.088 93.112 141.827 93.14 141.547 93.14ZM146.372 93.168C145.514 93.168 144.828 92.8507 144.314 92.216C143.801 91.5813 143.544 90.6993 143.544 89.57C143.544 88.8233 143.68 88.1793 143.95 87.638C144.23 87.0967 144.59 86.6813 145.028 86.392C145.476 86.1027 145.952 85.958 146.456 85.958C146.848 85.958 147.18 86.0233 147.45 86.154C147.73 86.2847 148.001 86.4713 148.262 86.714L148.206 85.608V83.116H149.816V93H148.486L148.374 92.258H148.318C148.066 92.51 147.772 92.7247 147.436 92.902C147.1 93.0793 146.746 93.168 146.372 93.168ZM146.764 91.838C147.035 91.838 147.287 91.7773 147.52 91.656C147.754 91.5253 147.982 91.3293 148.206 91.068V87.862C147.973 87.6473 147.74 87.498 147.506 87.414C147.273 87.33 147.04 87.288 146.806 87.288C146.508 87.288 146.237 87.3767 145.994 87.554C145.761 87.7313 145.57 87.988 145.42 88.324C145.28 88.66 145.21 89.0707 145.21 89.556C145.21 90.2933 145.346 90.858 145.616 91.25C145.887 91.642 146.27 91.838 146.764 91.838ZM152.777 93.168C152.487 93.168 152.24 93.0653 152.035 92.86C151.829 92.6453 151.727 92.384 151.727 92.076C151.727 91.7587 151.829 91.4973 152.035 91.292C152.24 91.0867 152.487 90.984 152.777 90.984C153.075 90.984 153.323 91.0867 153.519 91.292C153.715 91.4973 153.813 91.7587 153.813 92.076C153.813 92.384 153.715 92.6453 153.519 92.86C153.323 93.0653 153.075 93.168 152.777 93.168Z" fill="#001738"/>
</svg>
