<svg width="111" height="40" viewBox="0 0 111 40" fill="none" xmlns="http://www.w3.org/2000/svg">
<rect width="111" height="40" fill="#001738"/>
<rect width="40" height="40" rx="20" fill="white"/>
<path d="M6 23.6771V16.3229C6 15.5937 6.57362 15 7.28041 15C7.9872 15 8.56082 15.5937 8.56082 16.3229V18.7188H11.4392V16.3229C11.4392 15.5937 12.0128 15 12.7196 15C13.4264 15 14 15.5937 14 16.3229V23.6771C14 24.4063 13.4264 25 12.7196 25C12.0128 25 11.4392 24.4063 11.4392 23.6771V21.0313H8.56082V23.6771C8.56082 24.4063 7.9872 25 7.28041 25C6.57362 25 6 24.4063 6 23.6771Z" fill="#CC4C19"/>
<path d="M16 23.6771V16.3542C16 15.6042 16.6222 15 17.3889 15H19.8889C20.4333 15 20.9667 15.0521 21.4667 15.1563C21.9667 15.2604 22.4 15.4375 22.7778 15.6771C23.1556 15.9271 23.4444 16.25 23.6667 16.6667C23.8889 17.0833 24 17.6042 24 18.2292C24 18.9479 23.8444 19.5417 23.5444 20.0104C23.2444 20.4792 22.8444 20.8542 22.3333 21.1146L23.4667 23.0938C23.9556 23.9479 23.3222 24.9896 22.3222 24.9896C21.8333 24.9896 21.3778 24.7188 21.1556 24.3021L19.7556 21.6458H18.7111V23.6771C18.7111 24.4063 18.1 25 17.3556 25C16.6 25 16 24.4063 16 23.6771ZM18.7222 19.5521H19.7C20.8 19.5521 21.3444 19.1146 21.3444 18.2292C21.3444 17.8021 21.2 17.5 20.9222 17.3333C20.6444 17.1667 20.2333 17.0833 19.7 17.0833H18.7222V19.5417V19.5521Z" fill="#CC4C19"/>
<path d="M26 23.6472V16.3424C26 15.6035 26.6154 15 27.3687 15H29.6711C30.2016 15 30.7003 15.0416 31.1777 15.1145C31.6552 15.1873 32.0584 15.3226 32.3979 15.5099C32.7374 15.6972 33.0133 15.9469 33.2255 16.2695C33.4271 16.5921 33.5332 16.9979 33.5332 17.487C33.5332 17.7055 33.5013 17.924 33.4377 18.1426C33.374 18.3611 33.2891 18.5692 33.183 18.7773C33.0769 18.975 32.939 19.1519 32.7798 19.308C32.6207 19.4641 32.4403 19.5786 32.2493 19.641V19.7034C32.7374 19.8491 33.1512 20.1093 33.4907 20.4839C33.8302 20.8585 34 21.3788 34 22.0447C34 22.5546 33.8939 23.0021 33.6817 23.3767C33.4695 23.7513 33.183 24.0531 32.8223 24.3028C32.4615 24.5421 32.0371 24.719 31.5491 24.8335C31.061 24.948 30.5411 25 30 25H27.3899C26.6366 25 26.0212 24.3965 26.0212 23.6576L26 23.6472ZM28.695 18.9022H29.6074C30.0424 18.9022 30.3714 18.8085 30.5836 18.6212C30.7958 18.4339 30.9019 18.1946 30.9019 17.8824C30.9019 17.5702 30.7958 17.3517 30.5836 17.2164C30.3714 17.0812 30.0531 17.0187 29.6074 17.0187H28.695V18.8918V18.9022ZM28.695 22.9605H29.7878C30.8276 22.9605 31.3581 22.5963 31.3581 21.8574C31.3581 21.4932 31.2308 21.2227 30.9761 21.077C30.7215 20.9209 30.3289 20.8481 29.7878 20.8481H28.695V22.9709V22.9605Z" fill="#CC4C19"/>
<path d="M48.924 17V9.176H53.82V10.664H50.688V12.236H53.352V13.712H50.688V15.512H53.94V17H48.924ZM55.4142 17V11.048H56.8542L56.9742 11.816H57.0222C57.2622 11.568 57.5222 11.356 57.8022 11.18C58.0902 10.996 58.4302 10.904 58.8222 10.904C59.2462 10.904 59.5902 10.992 59.8542 11.168C60.1182 11.336 60.3222 11.58 60.4662 11.9C60.7302 11.628 61.0102 11.396 61.3062 11.204C61.6022 11.004 61.9462 10.904 62.3382 10.904C62.9862 10.904 63.4582 11.12 63.7542 11.552C64.0502 11.976 64.1982 12.56 64.1982 13.304V17H62.4342V13.532C62.4342 13.1 62.3742 12.804 62.2542 12.644C62.1422 12.484 61.9582 12.404 61.7022 12.404C61.5502 12.404 61.3902 12.452 61.2222 12.548C61.0542 12.636 60.8742 12.78 60.6822 12.98V17H58.9182V13.532C58.9182 13.1 58.8582 12.804 58.7382 12.644C58.6262 12.484 58.4422 12.404 58.1862 12.404C57.8822 12.404 57.5462 12.596 57.1782 12.98V17H55.4142ZM65.7633 19.208V11.048H67.2033L67.3233 11.636H67.3713C67.6033 11.42 67.8673 11.244 68.1633 11.108C68.4593 10.972 68.7593 10.904 69.0633 10.904C69.5433 10.904 69.9553 11.028 70.2993 11.276C70.6513 11.524 70.9193 11.876 71.1033 12.332C71.2953 12.788 71.3913 13.32 71.3913 13.928C71.3913 14.608 71.2713 15.188 71.0313 15.668C70.7913 16.148 70.4793 16.516 70.0953 16.772C69.7193 17.02 69.3153 17.144 68.8833 17.144C68.6353 17.144 68.3873 17.092 68.1393 16.988C67.8993 16.876 67.6753 16.72 67.4673 16.52L67.5273 17.468V19.208H65.7633ZM68.4753 15.704C68.6753 15.704 68.8593 15.644 69.0273 15.524C69.2033 15.404 69.3393 15.216 69.4353 14.96C69.5313 14.696 69.5793 14.36 69.5793 13.952C69.5793 13.592 69.5393 13.296 69.4593 13.064C69.3873 12.824 69.2753 12.644 69.1233 12.524C68.9713 12.404 68.7793 12.344 68.5473 12.344C68.3713 12.344 68.1993 12.388 68.0313 12.476C67.8713 12.556 67.7033 12.692 67.5273 12.884V15.32C67.6873 15.456 67.8473 15.556 68.0073 15.62C68.1753 15.676 68.3313 15.704 68.4753 15.704ZM74.3222 17.132C73.9222 17.132 73.6022 17.052 73.3622 16.892C73.1302 16.724 72.9622 16.492 72.8582 16.196C72.7542 15.892 72.7022 15.54 72.7022 15.14V8.6H74.4662V15.212C74.4662 15.404 74.4982 15.536 74.5622 15.608C74.6342 15.672 74.7102 15.704 74.7902 15.704C74.8222 15.704 74.8502 15.704 74.8742 15.704C74.9062 15.696 74.9462 15.688 74.9942 15.68L75.2102 16.988C75.1142 17.028 74.9902 17.06 74.8382 17.084C74.6942 17.116 74.5222 17.132 74.3222 17.132ZM78.7518 17.144C78.2478 17.144 77.7758 17.024 77.3358 16.784C76.8958 16.536 76.5358 16.18 76.2558 15.716C75.9838 15.244 75.8478 14.68 75.8478 14.024C75.8478 13.368 75.9838 12.808 76.2558 12.344C76.5358 11.872 76.8958 11.516 77.3358 11.276C77.7758 11.028 78.2478 10.904 78.7518 10.904C79.2478 10.904 79.7158 11.028 80.1558 11.276C80.5958 11.516 80.9518 11.872 81.2238 12.344C81.5038 12.808 81.6438 13.368 81.6438 14.024C81.6438 14.68 81.5038 15.244 81.2238 15.716C80.9518 16.18 80.5958 16.536 80.1558 16.784C79.7158 17.024 79.2478 17.144 78.7518 17.144ZM78.7518 15.716C78.9918 15.716 79.1918 15.648 79.3518 15.512C79.5198 15.376 79.6438 15.18 79.7238 14.924C79.8038 14.668 79.8438 14.368 79.8438 14.024C79.8438 13.68 79.8038 13.38 79.7238 13.124C79.6438 12.868 79.5198 12.672 79.3518 12.536C79.1918 12.4 78.9918 12.332 78.7518 12.332C78.5038 12.332 78.2998 12.4 78.1398 12.536C77.9798 12.672 77.8598 12.868 77.7798 13.124C77.6998 13.38 77.6598 13.68 77.6598 14.024C77.6598 14.368 77.6998 14.668 77.7798 14.924C77.8598 15.18 77.9798 15.376 78.1398 15.512C78.2998 15.648 78.5038 15.716 78.7518 15.716ZM83.4783 19.328C83.3023 19.328 83.1463 19.316 83.0103 19.292C82.8823 19.268 82.7583 19.232 82.6383 19.184L82.9503 17.888C83.0383 17.912 83.1103 17.924 83.1663 17.924C83.2303 17.932 83.2903 17.936 83.3463 17.936C83.6423 17.936 83.8703 17.86 84.0303 17.708C84.1983 17.564 84.3183 17.38 84.3903 17.156L84.4743 16.844L82.1823 11.048H83.9583L84.8103 13.604C84.8983 13.876 84.9783 14.152 85.0503 14.432C85.1223 14.712 85.1983 15 85.2783 15.296H85.3263C85.3903 15.016 85.4543 14.736 85.5183 14.456C85.5903 14.168 85.6623 13.884 85.7343 13.604L86.4543 11.048H88.1463L86.0823 17.06C85.8903 17.556 85.6823 17.972 85.4583 18.308C85.2423 18.644 84.9743 18.896 84.6543 19.064C84.3423 19.24 83.9503 19.328 83.4783 19.328ZM91.7063 17.144C91.1383 17.144 90.6263 17.02 90.1703 16.772C89.7143 16.524 89.3543 16.168 89.0903 15.704C88.8263 15.24 88.6943 14.68 88.6943 14.024C88.6943 13.376 88.8263 12.82 89.0903 12.356C89.3623 11.892 89.7143 11.536 90.1463 11.288C90.5783 11.032 91.0303 10.904 91.5023 10.904C92.0703 10.904 92.5423 11.032 92.9183 11.288C93.2943 11.536 93.5743 11.876 93.7583 12.308C93.9423 12.74 94.0343 13.224 94.0343 13.76C94.0343 13.912 94.0263 14.064 94.0103 14.216C93.9943 14.36 93.9783 14.476 93.9623 14.564H90.0623L90.0383 13.34H92.5223C92.5223 13.028 92.4463 12.772 92.2943 12.572C92.1423 12.364 91.8903 12.26 91.5383 12.26C91.3463 12.26 91.1583 12.312 90.9743 12.416C90.7903 12.52 90.6383 12.7 90.5183 12.956C90.3983 13.212 90.3423 13.568 90.3503 14.024C90.3583 14.472 90.4383 14.824 90.5903 15.08C90.7503 15.336 90.9503 15.52 91.1903 15.632C91.4303 15.736 91.6823 15.788 91.9463 15.788C92.1783 15.788 92.3983 15.756 92.6063 15.692C92.8223 15.62 93.0343 15.524 93.2423 15.404L93.8183 16.484C93.5223 16.692 93.1863 16.856 92.8103 16.976C92.4343 17.088 92.0663 17.144 91.7063 17.144ZM97.9773 17.144C97.4093 17.144 96.8973 17.02 96.4413 16.772C95.9853 16.524 95.6253 16.168 95.3613 15.704C95.0973 15.24 94.9653 14.68 94.9653 14.024C94.9653 13.376 95.0973 12.82 95.3613 12.356C95.6333 11.892 95.9853 11.536 96.4173 11.288C96.8493 11.032 97.3013 10.904 97.7733 10.904C98.3413 10.904 98.8133 11.032 99.1893 11.288C99.5653 11.536 99.8453 11.876 100.029 12.308C100.213 12.74 100.305 13.224 100.305 13.76C100.305 13.912 100.297 14.064 100.281 14.216C100.265 14.36 100.249 14.476 100.233 14.564H96.3333L96.3093 13.34H98.7933C98.7933 13.028 98.7173 12.772 98.5653 12.572C98.4133 12.364 98.1613 12.26 97.8093 12.26C97.6173 12.26 97.4293 12.312 97.2453 12.416C97.0613 12.52 96.9093 12.7 96.7893 12.956C96.6693 13.212 96.6133 13.568 96.6213 14.024C96.6293 14.472 96.7093 14.824 96.8613 15.08C97.0213 15.336 97.2213 15.52 97.4613 15.632C97.7013 15.736 97.9533 15.788 98.2173 15.788C98.4493 15.788 98.6693 15.756 98.8773 15.692C99.0933 15.62 99.3053 15.524 99.5133 15.404L100.089 16.484C99.7933 16.692 99.4573 16.856 99.0813 16.976C98.7053 17.088 98.3373 17.144 97.9773 17.144ZM51.312 31.144C50.792 31.144 50.28 31.052 49.776 30.868C49.272 30.676 48.82 30.388 48.42 30.004L49.356 28.852C49.636 29.092 49.952 29.28 50.304 29.416C50.664 29.552 51.016 29.62 51.36 29.62C51.728 29.62 52 29.552 52.176 29.416C52.36 29.28 52.452 29.096 52.452 28.864C52.452 28.696 52.404 28.564 52.308 28.468C52.22 28.364 52.092 28.272 51.924 28.192C51.756 28.112 51.556 28.024 51.324 27.928L50.304 27.508C50.04 27.388 49.784 27.236 49.536 27.052C49.296 26.86 49.1 26.628 48.948 26.356C48.804 26.076 48.732 25.744 48.732 25.36C48.732 24.928 48.848 24.54 49.08 24.196C49.32 23.844 49.648 23.564 50.064 23.356C50.488 23.14 50.972 23.032 51.516 23.032C51.988 23.032 52.444 23.116 52.884 23.284C53.324 23.452 53.708 23.696 54.036 24.016L53.1 25.156C52.844 24.964 52.58 24.816 52.308 24.712C52.044 24.608 51.78 24.556 51.516 24.556C51.212 24.556 50.968 24.62 50.784 24.748C50.608 24.868 50.52 25.04 50.52 25.264C50.52 25.416 50.572 25.548 50.676 25.66C50.78 25.764 50.924 25.856 51.108 25.936C51.292 26.008 51.492 26.092 51.708 26.188L52.716 26.596C53.036 26.724 53.308 26.884 53.532 27.076C53.764 27.268 53.944 27.5 54.072 27.772C54.2 28.036 54.264 28.352 54.264 28.72C54.264 29.152 54.148 29.552 53.916 29.92C53.684 30.288 53.348 30.584 52.908 30.808C52.468 31.032 51.936 31.144 51.312 31.144ZM58.172 31.144C57.604 31.144 57.092 31.02 56.636 30.772C56.18 30.524 55.82 30.168 55.556 29.704C55.292 29.24 55.16 28.68 55.16 28.024C55.16 27.376 55.292 26.82 55.556 26.356C55.828 25.892 56.18 25.536 56.612 25.288C57.044 25.032 57.496 24.904 57.968 24.904C58.536 24.904 59.008 25.032 59.384 25.288C59.76 25.536 60.04 25.876 60.224 26.308C60.408 26.74 60.5 27.224 60.5 27.76C60.5 27.912 60.492 28.064 60.476 28.216C60.46 28.36 60.444 28.476 60.428 28.564H56.528L56.504 27.34H58.988C58.988 27.028 58.912 26.772 58.76 26.572C58.608 26.364 58.356 26.26 58.004 26.26C57.812 26.26 57.624 26.312 57.44 26.416C57.256 26.52 57.104 26.7 56.984 26.956C56.864 27.212 56.808 27.568 56.816 28.024C56.824 28.472 56.904 28.824 57.056 29.08C57.216 29.336 57.416 29.52 57.656 29.632C57.896 29.736 58.148 29.788 58.412 29.788C58.644 29.788 58.864 29.756 59.072 29.692C59.288 29.62 59.5 29.524 59.708 29.404L60.284 30.484C59.988 30.692 59.652 30.856 59.276 30.976C58.9 31.088 58.532 31.144 58.172 31.144ZM63.3989 31.132C62.9989 31.132 62.6789 31.052 62.4389 30.892C62.2069 30.724 62.0389 30.492 61.9349 30.196C61.8309 29.892 61.7789 29.54 61.7789 29.14V22.6H63.5429V29.212C63.5429 29.404 63.5749 29.536 63.6389 29.608C63.7109 29.672 63.7869 29.704 63.8669 29.704C63.8989 29.704 63.9269 29.704 63.9509 29.704C63.9829 29.696 64.0229 29.688 64.0709 29.68L64.2869 30.988C64.1909 31.028 64.0669 31.06 63.9149 31.084C63.7709 31.116 63.5989 31.132 63.3989 31.132ZM65.5725 31V24.736C65.5725 24.312 65.6405 23.928 65.7765 23.584C65.9205 23.24 66.1525 22.964 66.4725 22.756C66.8005 22.548 67.2325 22.444 67.7685 22.444C68.0165 22.444 68.2445 22.468 68.4525 22.516C68.6605 22.564 68.8285 22.612 68.9565 22.66L68.6085 23.92C68.4085 23.864 68.2125 23.836 68.0205 23.836C67.8045 23.836 67.6365 23.904 67.5165 24.04C67.3965 24.168 67.3365 24.384 67.3365 24.688V31H65.5725ZM64.6965 26.428V25.12L65.6925 25.048H68.4045V26.428H64.6965ZM74.4167 31.144C73.8967 31.144 73.3847 31.052 72.8807 30.868C72.3767 30.676 71.9247 30.388 71.5247 30.004L72.4607 28.852C72.7407 29.092 73.0567 29.28 73.4087 29.416C73.7687 29.552 74.1207 29.62 74.4647 29.62C74.8327 29.62 75.1047 29.552 75.2807 29.416C75.4647 29.28 75.5567 29.096 75.5567 28.864C75.5567 28.696 75.5087 28.564 75.4127 28.468C75.3247 28.364 75.1967 28.272 75.0287 28.192C74.8607 28.112 74.6607 28.024 74.4287 27.928L73.4087 27.508C73.1447 27.388 72.8887 27.236 72.6407 27.052C72.4007 26.86 72.2047 26.628 72.0527 26.356C71.9087 26.076 71.8367 25.744 71.8367 25.36C71.8367 24.928 71.9527 24.54 72.1847 24.196C72.4247 23.844 72.7527 23.564 73.1687 23.356C73.5927 23.14 74.0767 23.032 74.6207 23.032C75.0927 23.032 75.5487 23.116 75.9887 23.284C76.4287 23.452 76.8127 23.696 77.1407 24.016L76.2047 25.156C75.9487 24.964 75.6847 24.816 75.4127 24.712C75.1487 24.608 74.8847 24.556 74.6207 24.556C74.3167 24.556 74.0727 24.62 73.8887 24.748C73.7127 24.868 73.6247 25.04 73.6247 25.264C73.6247 25.416 73.6767 25.548 73.7807 25.66C73.8847 25.764 74.0287 25.856 74.2127 25.936C74.3967 26.008 74.5967 26.092 74.8127 26.188L75.8207 26.596C76.1407 26.724 76.4127 26.884 76.6367 27.076C76.8687 27.268 77.0487 27.5 77.1767 27.772C77.3047 28.036 77.3687 28.352 77.3687 28.72C77.3687 29.152 77.2527 29.552 77.0207 29.92C76.7887 30.288 76.4527 30.584 76.0127 30.808C75.5727 31.032 75.0407 31.144 74.4167 31.144ZM81.2767 31.144C80.7087 31.144 80.1967 31.02 79.7407 30.772C79.2847 30.524 78.9247 30.168 78.6607 29.704C78.3967 29.24 78.2647 28.68 78.2647 28.024C78.2647 27.376 78.3967 26.82 78.6607 26.356C78.9327 25.892 79.2847 25.536 79.7167 25.288C80.1487 25.032 80.6007 24.904 81.0727 24.904C81.6407 24.904 82.1127 25.032 82.4887 25.288C82.8647 25.536 83.1447 25.876 83.3287 26.308C83.5127 26.74 83.6047 27.224 83.6047 27.76C83.6047 27.912 83.5967 28.064 83.5807 28.216C83.5647 28.36 83.5487 28.476 83.5327 28.564H79.6327L79.6087 27.34H82.0927C82.0927 27.028 82.0167 26.772 81.8647 26.572C81.7127 26.364 81.4607 26.26 81.1087 26.26C80.9167 26.26 80.7287 26.312 80.5447 26.416C80.3607 26.52 80.2087 26.7 80.0887 26.956C79.9687 27.212 79.9127 27.568 79.9207 28.024C79.9287 28.472 80.0087 28.824 80.1607 29.08C80.3207 29.336 80.5207 29.52 80.7607 29.632C81.0007 29.736 81.2527 29.788 81.5167 29.788C81.7487 29.788 81.9687 29.756 82.1767 29.692C82.3927 29.62 82.6047 29.524 82.8127 29.404L83.3887 30.484C83.0927 30.692 82.7567 30.856 82.3807 30.976C82.0047 31.088 81.6367 31.144 81.2767 31.144ZM84.8836 31V25.048H86.3236L86.4436 26.092H86.4916C86.7076 25.692 86.9636 25.396 87.2596 25.204C87.5636 25.004 87.8716 24.904 88.1836 24.904C88.3516 24.904 88.4916 24.916 88.6036 24.94C88.7156 24.956 88.8116 24.984 88.8916 25.024L88.5556 26.524C88.4596 26.5 88.3676 26.484 88.2796 26.476C88.1916 26.46 88.0836 26.452 87.9556 26.452C87.7316 26.452 87.4956 26.532 87.2476 26.692C87.0076 26.852 86.8076 27.136 86.6476 27.544V31H84.8836ZM91.1749 31L89.1709 25.048H90.9469L91.7149 27.856C91.7949 28.152 91.8709 28.452 91.9429 28.756C92.0229 29.06 92.1029 29.372 92.1829 29.692H92.2309C92.3029 29.372 92.3789 29.06 92.4589 28.756C92.5389 28.452 92.6149 28.152 92.6869 27.856L93.4669 25.048H95.1589L93.2149 31H91.1749ZM96.1481 31V25.048H97.9121V31H96.1481ZM97.0241 24.172C96.7281 24.172 96.4881 24.088 96.3041 23.92C96.1201 23.752 96.0281 23.528 96.0281 23.248C96.0281 22.968 96.1201 22.744 96.3041 22.576C96.4881 22.408 96.7281 22.324 97.0241 22.324C97.3201 22.324 97.5601 22.408 97.7441 22.576C97.9281 22.744 98.0201 22.968 98.0201 23.248C98.0201 23.528 97.9281 23.752 97.7441 23.92C97.5601 24.088 97.3201 24.172 97.0241 24.172ZM102.153 31.144C101.593 31.144 101.085 31.02 100.629 30.772C100.181 30.524 99.8245 30.168 99.5605 29.704C99.3045 29.24 99.1765 28.68 99.1765 28.024C99.1765 27.368 99.3205 26.808 99.6085 26.344C99.8965 25.88 100.277 25.524 100.749 25.276C101.221 25.028 101.729 24.904 102.273 24.904C102.641 24.904 102.969 24.964 103.257 25.084C103.553 25.196 103.805 25.348 104.013 25.54L103.185 26.632C103.081 26.544 102.961 26.472 102.825 26.416C102.697 26.36 102.549 26.332 102.381 26.332C102.101 26.332 101.857 26.4 101.649 26.536C101.441 26.672 101.277 26.868 101.157 27.124C101.037 27.38 100.977 27.68 100.977 28.024C100.977 28.368 101.037 28.668 101.157 28.924C101.277 29.18 101.437 29.376 101.637 29.512C101.845 29.648 102.077 29.716 102.333 29.716C102.533 29.716 102.721 29.68 102.897 29.608C103.073 29.536 103.237 29.444 103.389 29.332L104.085 30.412C103.837 30.636 103.545 30.816 103.209 30.952C102.873 31.08 102.521 31.144 102.153 31.144ZM107.534 31.144C106.966 31.144 106.454 31.02 105.998 30.772C105.542 30.524 105.182 30.168 104.918 29.704C104.654 29.24 104.522 28.68 104.522 28.024C104.522 27.376 104.654 26.82 104.918 26.356C105.19 25.892 105.542 25.536 105.974 25.288C106.406 25.032 106.858 24.904 107.33 24.904C107.898 24.904 108.37 25.032 108.746 25.288C109.122 25.536 109.402 25.876 109.586 26.308C109.77 26.74 109.862 27.224 109.862 27.76C109.862 27.912 109.854 28.064 109.838 28.216C109.822 28.36 109.806 28.476 109.79 28.564H105.89L105.866 27.34H108.35C108.35 27.028 108.274 26.772 108.122 26.572C107.97 26.364 107.718 26.26 107.366 26.26C107.174 26.26 106.986 26.312 106.802 26.416C106.618 26.52 106.466 26.7 106.346 26.956C106.226 27.212 106.17 27.568 106.178 28.024C106.186 28.472 106.266 28.824 106.418 29.08C106.578 29.336 106.778 29.52 107.018 29.632C107.258 29.736 107.51 29.788 107.774 29.788C108.006 29.788 108.226 29.756 108.434 29.692C108.65 29.62 108.862 29.524 109.07 29.404L109.646 30.484C109.35 30.692 109.014 30.856 108.638 30.976C108.262 31.088 107.894 31.144 107.534 31.144Z" fill="white"/>
</svg>
