<svg width="348" height="182" viewBox="0 0 348 182" fill="none" xmlns="http://www.w3.org/2000/svg">
<path d="M192.702 112.588C222.69 112.588 246.999 88.2799 246.999 58.2941C246.999 28.3083 222.69 4 192.702 4C162.715 4 138.405 28.3083 138.405 58.2941C138.405 88.2799 162.715 112.588 192.702 112.588Z" fill="#F0F3F8"/>
<path d="M106.43 14.8594C109.429 14.8594 111.86 12.4284 111.86 9.42969C111.86 6.43096 109.429 4 106.43 4C103.432 4 101.001 6.43096 101.001 9.42969C101.001 12.4284 103.432 14.8594 106.43 14.8594Z" fill="#F0F3F8"/>
<path d="M236.743 149.999C239.742 149.999 242.173 147.568 242.173 144.569C242.173 141.57 239.742 139.139 236.743 139.139C233.744 139.139 231.313 141.57 231.313 144.569C231.313 147.568 233.744 149.999 236.743 149.999Z" fill="#F0F3F8"/>
<path d="M243.983 136.726C245.649 136.726 246.999 135.375 246.999 133.709C246.999 132.043 245.649 130.693 243.983 130.693C242.317 130.693 240.966 132.043 240.966 133.709C240.966 135.375 242.317 136.726 243.983 136.726Z" fill="#F0F3F8"/>
<path d="M113.67 131.296C115.336 131.296 116.687 129.945 116.687 128.279C116.687 126.613 115.336 125.263 113.67 125.263C112.004 125.263 110.654 126.613 110.654 128.279C110.654 129.945 112.004 131.296 113.67 131.296Z" fill="#F0F3F8"/>
<path d="M179.042 32.7018L183.327 42.6657H189.06V32.7018H179.042ZM188.203 41.806H183.893L180.345 33.5615H188.203V41.806Z" fill="#8B9AB2"/>
<rect x="124.838" y="64.1959" width="38.8199" height="22.9254" fill="white"/>
<path d="M161.32 64.399H127.376C126.194 64.399 125.234 65.3618 125.234 66.5482V84.4386C125.234 85.625 126.194 86.5879 127.376 86.5879H161.32C162.503 86.5879 163.463 85.625 163.463 84.4386V66.5482C163.463 65.3618 162.503 64.399 161.32 64.399ZM162.606 84.4386C162.606 85.1522 162.032 85.7282 161.32 85.7282H127.376C126.674 85.7282 126.091 85.1522 126.091 84.4386V66.5482C126.091 65.8347 126.674 65.2587 127.376 65.2587H161.32C162.032 65.2587 162.606 65.8347 162.606 66.5482V84.4386Z" fill="#8B9AB2"/>
<path d="M209.13 123.779L207.416 114.313H199.344V31.7819H217.34V24.0446H217.04L194.005 9.48985C193.893 9.42967 193.765 9.41247 193.645 9.45546L152.871 24.0446H143.641L134.001 31.7819H143.53V44.7204C142.33 44.9268 141.405 45.9756 141.405 47.2394C141.405 48.5031 142.33 49.5434 143.53 49.7497V51.6496H143.958C144.893 51.6496 145.655 52.4148 145.655 53.3518C145.655 54.2889 144.893 55.0454 143.958 55.0454C143.581 55.0454 143.221 54.9251 142.922 54.693C142.733 54.5468 142.467 54.5812 142.322 54.7703C142.176 54.9595 142.21 55.226 142.399 55.3721C142.476 55.4323 142.553 55.4839 142.639 55.5269L125.585 61.8285C123.974 61.8801 122.689 63.204 122.689 64.8288V86.1581C122.689 87.8173 124.034 89.167 125.688 89.167H163.052C164.705 89.167 166.051 87.8173 166.051 86.1581V64.8288C166.051 63.204 164.765 61.8887 163.163 61.8285L145.441 55.4237C146.084 54.9595 146.512 54.2029 146.512 53.3518C146.512 52.0881 145.587 51.0306 144.387 50.8243V49.7497C145.587 49.5434 146.512 48.5031 146.512 47.2394C146.512 45.9756 145.587 44.9268 144.387 44.7204V31.7819H176.806L182.213 44.3851H188.22V114.313H180.148L178.434 123.779H123.906V124.638H247.308V123.779H209.13ZM165.177 64.8288V86.1581C165.177 87.3444 164.217 88.3073 163.034 88.3073H125.671C124.488 88.3073 123.529 87.3444 123.529 86.1581V64.8288C123.529 63.6425 124.488 62.6796 125.671 62.6796H163.034C164.217 62.6796 165.177 63.6425 165.177 64.8288ZM160.583 61.8199H128.07L144.13 55.888H144.173L160.583 61.8199ZM136.426 30.9222L143.513 25.231V30.9222H136.426ZM145.638 47.2394C145.638 48.1764 144.875 48.933 143.941 48.933C143.007 48.933 142.245 48.1764 142.245 47.2394C142.245 46.3023 143.007 45.5371 143.941 45.5371C144.875 45.5371 145.638 46.3023 145.638 47.2394ZM144.37 30.9222V25.3685L151.08 30.9222H144.37ZM152.562 30.9222H152.425L145.158 24.9043H152.562V30.9222ZM199.344 30.9222V25.1536L206.311 30.9222H199.344ZM207.793 30.9222H207.656L200.389 24.9043H207.793V30.9222ZM208.65 30.9222V25.3685L215.36 30.9222H208.65ZM216.483 30.7331L209.447 24.9043H216.483V30.7331ZM215.429 24.0446H199.344V14.5879H199.095L196.773 12.2581L215.429 24.0446ZM189.197 24.9043H198.487V30.9222H189.197V24.9043ZM189.06 23.5976V15.4476H197.818L189.06 23.5976ZM189.84 24.0446L198.487 15.9978V24.0446H189.84ZM193.774 10.4613L197.878 14.5879H189.669L193.774 10.4613ZM192.128 10.8998L188.46 14.5879H188.203V24.0446H155.407L192.128 10.8998ZM181.373 24.9043H188.203V30.5611L181.373 24.9043ZM187.286 30.9222H180.576V25.3685L187.286 30.9222ZM179.719 24.9043V30.9222H179.582L172.315 24.9043H179.719ZM153.419 30.9222V25.3685L160.138 30.9222H153.419ZM161.62 30.9222H161.483L154.216 24.9043H161.62V30.9222ZM162.477 30.9222V25.3685L169.187 30.9222H162.477ZM170.67 30.9222H170.533L163.266 24.9043H170.67V30.9222ZM171.527 30.9222V25.3685L178.237 30.9222H171.527ZM182.762 43.5254L177.74 31.8421H198.487V43.5254H182.762ZM198.487 105.467V114.313H189.669L198.487 105.467ZM189.06 113.711V104.865H197.878L189.06 113.711ZM189.9 104.005L198.487 95.3827V104.005H189.9ZM189.06 103.627V94.7809H197.878L189.06 103.627ZM189.9 93.9212L198.487 85.3069V93.9212H189.9ZM189.06 93.5515V84.7052H197.878L189.06 93.5515ZM189.9 83.8455L198.487 75.2312V83.8455H189.9ZM189.06 83.4672V74.6209H197.878L189.06 83.4672ZM189.9 73.7612L198.487 65.1469V73.7612H189.9ZM189.06 73.3915V64.5451H197.878L189.06 73.3915ZM189.9 63.6854L198.487 55.0712V63.6854H189.9ZM189.06 63.3072V54.4694H197.878L189.06 63.3072ZM189.9 53.6097L198.487 44.9869V53.6097H189.9ZM189.06 53.2315V44.3851H197.878L189.06 53.2315ZM180.851 115.173H206.696L207.733 120.856H179.822L180.851 115.173ZM179.291 123.779L179.668 121.715H207.888L208.256 123.779H179.291Z" fill="#8B9AB2"/>
<path d="M163.034 62.6796H125.671C124.488 62.6796 123.529 63.6424 123.529 64.8288V86.158C123.529 87.3444 124.488 88.3073 125.671 88.3073H163.034C164.217 88.3073 165.177 87.3444 165.177 86.158V64.8288C165.177 63.6424 164.217 62.6796 163.034 62.6796ZM163.463 84.4386C163.463 85.625 162.503 86.5879 161.32 86.5879H127.376C126.194 86.5879 125.234 85.625 125.234 84.4386V66.5482C125.234 65.3618 126.194 64.399 127.376 64.399H161.32C162.503 64.399 163.463 65.3618 163.463 66.5482V84.4386Z" fill="#E3E6EC"/>
<path d="M207.733 120.856H179.822L180.851 115.173H206.697L207.733 120.856Z" fill="#E3E6EC"/>
<path d="M208.256 123.779H179.291L179.668 121.715H207.888L208.256 123.779Z" fill="#8B9AB2"/>
<path d="M145.638 47.2394C145.638 48.1764 144.875 48.933 143.941 48.933C143.007 48.933 142.245 48.1764 142.245 47.2394C142.245 46.3023 143.007 45.5372 143.941 45.5372C144.875 45.5372 145.638 46.3023 145.638 47.2394Z" fill="#E3E6EC"/>
<path d="M177.74 31.8421L182.762 43.5254H198.487V31.8421H177.74ZM189.06 42.6657H183.327L179.042 32.7018H189.06V42.6657Z" fill="#E3E6EC"/>
<path d="M135.308 68.121L131.194 68.1268C130.721 68.1274 130.338 68.5129 130.338 68.9877L130.339 69.0135C130.339 69.4883 130.723 69.8726 131.197 69.872L135.31 69.8662C135.783 69.8655 136.166 69.4801 136.166 69.0053L136.166 68.9795C136.165 68.5047 135.781 68.1203 135.308 68.121Z" fill="#E3E6EC"/>
<path d="M152.267 68.1059L146.705 68.1137C146.232 68.1143 145.849 68.4998 145.849 68.9746L145.849 69.0004C145.85 69.4752 146.234 69.8595 146.708 69.8589L152.269 69.8511C152.743 69.8504 153.126 69.465 153.125 68.9902L153.125 68.9644C153.124 68.4896 152.74 68.1052 152.267 68.1059Z" fill="#E3E6EC"/>
<path d="M157.357 68.09L155.429 68.0927C154.956 68.0934 154.573 68.4788 154.573 68.9536L154.573 68.9794C154.574 69.4542 154.958 69.8386 155.431 69.8379L157.36 69.8352C157.833 69.8346 158.216 69.4491 158.215 68.9743L158.215 68.9485C158.215 68.4737 157.83 68.0894 157.357 68.09Z" fill="#E3E6EC"/>
<path d="M160.026 70.9921L128.516 71.0363L128.516 71.3286L160.027 71.2844L160.026 70.9921Z" fill="#E3E6EC"/>
<path d="M135.314 72.4796L131.2 72.4854C130.727 72.4861 130.344 72.8715 130.345 73.3463L130.345 73.3721C130.345 73.8469 130.729 74.2313 131.203 74.2306L135.316 74.2248C135.789 74.2242 136.173 73.8387 136.172 73.3639L136.172 73.3381C136.171 72.8633 135.787 72.479 135.314 72.4796Z" fill="#E3E6EC"/>
<path d="M152.273 72.4559L146.711 72.4637C146.238 72.4643 145.855 72.8498 145.855 73.3246L145.855 73.3504C145.856 73.8252 146.24 74.2095 146.714 74.2089L152.275 74.2011C152.749 74.2004 153.132 73.815 153.131 73.3402L153.131 73.3144C153.13 72.8396 152.746 72.4552 152.273 72.4559Z" fill="#E3E6EC"/>
<path d="M157.355 72.4488L155.427 72.4515C154.953 72.4522 154.57 72.8376 154.571 73.3124L154.571 73.3382C154.571 73.813 154.956 74.1974 155.429 74.1967L157.357 74.194C157.83 74.1933 158.214 73.8079 158.213 73.3331L158.213 73.3073C158.212 72.8325 157.828 72.4481 157.355 72.4488Z" fill="#E3E6EC"/>
<path d="M160.041 75.3508L128.531 75.3949L128.531 75.6872L160.041 75.6431L160.041 75.3508Z" fill="#E3E6EC"/>
<path d="M135.311 76.8384L131.198 76.8441C130.725 76.8448 130.341 77.2302 130.342 77.705L130.342 77.7308C130.343 78.2056 130.727 78.59 131.2 78.5893L135.314 78.5836C135.787 78.5829 136.17 78.1974 136.169 77.7227L136.169 77.6969C136.169 77.2221 135.785 76.8377 135.311 76.8384Z" fill="#E3E6EC"/>
<path d="M152.27 76.8145L146.709 76.8223C146.235 76.823 145.852 77.2084 145.853 77.6832L145.853 77.709C145.854 78.1838 146.238 78.5682 146.711 78.5675L152.273 78.5597C152.746 78.5591 153.129 78.1736 153.129 77.6988L153.129 77.673C153.128 77.1982 152.744 76.8139 152.27 76.8145Z" fill="#E3E6EC"/>
<path d="M157.361 76.8074L155.433 76.8101C154.959 76.8108 154.576 77.1962 154.577 77.671L154.577 77.6968C154.578 78.1716 154.962 78.556 155.435 78.5553L157.363 78.5526C157.837 78.552 158.22 78.1665 158.219 77.6917L158.219 77.6659C158.218 77.1911 157.834 76.8068 157.361 76.8074Z" fill="#E3E6EC"/>
<path d="M160.039 79.7095L128.528 79.7537L128.529 80.046L160.039 80.0018L160.039 79.7095Z" fill="#E3E6EC"/>
<path d="M135.326 81.1884L131.213 81.1942C130.739 81.1948 130.356 81.5803 130.357 82.0551L130.357 82.0809C130.357 82.5557 130.742 82.94 131.215 82.9394L135.328 82.9336C135.802 82.9329 136.185 82.5475 136.184 82.0727L136.184 82.0469C136.183 81.5721 135.799 81.1877 135.326 81.1884Z" fill="#E3E6EC"/>
<path d="M152.285 81.1733L146.723 81.1811C146.25 81.1817 145.867 81.5672 145.868 82.042L145.868 82.0678C145.868 82.5426 146.253 82.9269 146.726 82.9263L152.288 82.9185C152.761 82.9178 153.144 82.5324 153.143 82.0576L153.143 82.0318C153.143 81.557 152.758 81.1726 152.285 81.1733Z" fill="#E3E6EC"/>
<path d="M157.375 81.1575L155.447 81.1602C154.974 81.1609 154.591 81.5463 154.592 82.0211L154.592 82.0469C154.592 82.5217 154.976 82.906 155.45 82.9054L157.378 82.9027C157.851 82.902 158.234 82.5166 158.234 82.0418L158.234 82.016C158.233 81.5412 157.849 81.1568 157.375 81.1575Z" fill="#E3E6EC"/>
<path d="M2.94 170.999V160.503H4.396L8.124 167.031C8.32667 167.383 8.51867 167.751 8.7 168.135C8.88133 168.508 9.06267 168.892 9.244 169.287H9.308C9.276 168.743 9.23867 168.188 9.196 167.623C9.15333 167.047 9.132 166.492 9.132 165.959V160.503H10.412V170.999H8.956L5.228 164.471C5.036 164.119 4.83867 163.751 4.636 163.367C4.444 162.983 4.26267 162.599 4.092 162.215H4.028C4.07067 162.738 4.108 163.276 4.14 163.831C4.18267 164.386 4.204 164.946 4.204 165.511V170.999H2.94ZM16.1954 171.191C15.566 171.191 14.974 171.031 14.4194 170.711C13.8754 170.391 13.4327 169.927 13.0914 169.319C12.7607 168.711 12.5954 167.98 12.5954 167.127C12.5954 166.252 12.7607 165.511 13.0914 164.903C13.4327 164.295 13.8754 163.831 14.4194 163.511C14.974 163.191 15.566 163.031 16.1954 163.031C16.8354 163.031 17.4274 163.191 17.9714 163.511C18.5154 163.831 18.9527 164.295 19.2834 164.903C19.6247 165.511 19.7954 166.252 19.7954 167.127C19.7954 167.98 19.6247 168.711 19.2834 169.319C18.9527 169.927 18.5154 170.391 17.9714 170.711C17.4274 171.031 16.8354 171.191 16.1954 171.191ZM16.1954 170.103C16.6434 170.103 17.038 169.98 17.3794 169.735C17.7207 169.479 17.982 169.127 18.1634 168.679C18.3447 168.231 18.4354 167.714 18.4354 167.127C18.4354 166.53 18.3447 166.007 18.1634 165.559C17.982 165.1 17.7207 164.748 17.3794 164.503C17.038 164.247 16.6434 164.119 16.1954 164.119C15.7474 164.119 15.3527 164.247 15.0114 164.503C14.6807 164.748 14.4194 165.1 14.2274 165.559C14.046 166.007 13.9554 166.53 13.9554 167.127C13.9554 167.714 14.046 168.231 14.2274 168.679C14.4194 169.127 14.6807 169.479 15.0114 169.735C15.3527 169.98 15.7474 170.103 16.1954 170.103ZM27.7024 171.191C26.721 171.191 25.937 170.839 25.3504 170.135C24.7744 169.42 24.4864 168.418 24.4864 167.127C24.4864 166.284 24.641 165.559 24.9504 164.951C25.2704 164.332 25.6864 163.858 26.1984 163.527C26.7104 163.196 27.265 163.031 27.8624 163.031C28.321 163.031 28.7104 163.111 29.0304 163.271C29.361 163.42 29.697 163.639 30.0384 163.927L29.9744 162.599V159.607H31.3024V170.999H30.2144L30.1024 170.087H30.0544C29.7557 170.386 29.4037 170.647 28.9984 170.871C28.593 171.084 28.161 171.191 27.7024 171.191ZM27.9904 170.087C28.353 170.087 28.6944 169.996 29.0144 169.815C29.3344 169.634 29.6544 169.367 29.9744 169.015V164.951C29.6544 164.652 29.3397 164.444 29.0304 164.327C28.721 164.199 28.4064 164.135 28.0864 164.135C27.6704 164.135 27.2917 164.263 26.9504 164.519C26.6197 164.764 26.353 165.111 26.1504 165.559C25.9477 165.996 25.8464 166.514 25.8464 167.111C25.8464 168.039 26.033 168.77 26.4064 169.303C26.7797 169.826 27.3077 170.087 27.9904 170.087ZM37.0734 171.191C36.38 171.191 35.7454 171.031 35.1694 170.711C34.604 170.38 34.156 169.916 33.8254 169.319C33.4947 168.711 33.3294 167.975 33.3294 167.111C33.3294 166.268 33.5 165.543 33.8414 164.935C34.1827 164.327 34.62 163.858 35.1534 163.527C35.6867 163.196 36.252 163.031 36.8494 163.031C37.5107 163.031 38.0707 163.186 38.5294 163.495C38.9987 163.794 39.3507 164.215 39.5854 164.759C39.82 165.303 39.9374 165.943 39.9374 166.679C39.9374 166.818 39.932 166.951 39.9214 167.079C39.9214 167.207 39.9054 167.335 39.8734 167.463H34.2734V166.423H38.7534C38.7534 165.676 38.588 165.106 38.2574 164.711C37.9374 164.306 37.4734 164.103 36.8654 164.103C36.5134 164.103 36.1667 164.204 35.8254 164.407C35.484 164.599 35.2014 164.914 34.9774 165.351C34.764 165.788 34.6574 166.37 34.6574 167.095C34.6574 167.756 34.7694 168.311 34.9934 168.759C35.228 169.207 35.5427 169.548 35.9374 169.783C36.332 170.007 36.764 170.119 37.2334 170.119C37.6067 170.119 37.9534 170.066 38.2734 169.959C38.604 169.852 38.9027 169.708 39.1694 169.527L39.6494 170.391C39.308 170.626 38.924 170.818 38.4974 170.967C38.0814 171.116 37.6067 171.191 37.0734 171.191ZM43.8909 171.191C43.3255 171.191 42.7869 171.095 42.2749 170.903C41.7735 170.7 41.3469 170.423 40.9949 170.071L41.6029 169.303C41.9442 169.58 42.2962 169.794 42.6589 169.943C43.0322 170.092 43.4589 170.167 43.9389 170.167C44.4509 170.167 44.8349 170.05 45.0909 169.815C45.3469 169.57 45.4749 169.282 45.4749 168.951C45.4749 168.684 45.3842 168.466 45.2029 168.295C45.0322 168.114 44.8135 167.964 44.5469 167.847C44.2909 167.719 44.0135 167.602 43.7149 167.495C43.3309 167.356 42.9629 167.196 42.6109 167.015C42.2589 166.823 41.9709 166.588 41.7469 166.311C41.5335 166.023 41.4269 165.666 41.4269 165.239C41.4269 164.61 41.6615 164.087 42.1309 163.671C42.6109 163.244 43.2722 163.031 44.1149 163.031C44.5949 163.031 45.0429 163.116 45.4589 163.287C45.8749 163.447 46.2322 163.655 46.5309 163.911L45.9229 164.663C45.6455 164.471 45.3629 164.322 45.0749 164.215C44.7869 164.108 44.4669 164.055 44.1149 164.055C43.6242 164.055 43.2615 164.167 43.0269 164.391C42.8029 164.615 42.6909 164.876 42.6909 165.175C42.6909 165.41 42.7602 165.607 42.8989 165.767C43.0375 165.916 43.2295 166.05 43.4749 166.167C43.7309 166.284 44.0189 166.396 44.3389 166.503C44.7442 166.652 45.1282 166.823 45.4909 167.015C45.8642 167.196 46.1629 167.436 46.3869 167.735C46.6215 168.023 46.7389 168.402 46.7389 168.871C46.7389 169.298 46.6269 169.687 46.4029 170.039C46.1895 170.38 45.8695 170.658 45.4429 170.871C45.0269 171.084 44.5095 171.191 43.8909 171.191ZM48.562 170.999V163.223H49.874V170.999H48.562ZM49.218 161.623C48.962 161.623 48.7487 161.543 48.578 161.383C48.418 161.223 48.338 161.015 48.338 160.759C48.338 160.503 48.418 160.295 48.578 160.135C48.7487 159.975 48.962 159.895 49.218 159.895C49.474 159.895 49.682 159.975 49.842 160.135C50.0127 160.295 50.098 160.503 50.098 160.759C50.098 161.015 50.0127 161.223 49.842 161.383C49.682 161.543 49.474 161.623 49.218 161.623ZM55.1235 174.583C54.4942 174.583 53.9342 174.498 53.4435 174.327C52.9635 174.167 52.5848 173.932 52.3075 173.623C52.0408 173.314 51.9075 172.935 51.9075 172.487C51.9075 172.156 52.0088 171.836 52.2115 171.527C52.4142 171.228 52.6915 170.962 53.0435 170.727V170.663C52.8515 170.535 52.6862 170.37 52.5475 170.167C52.4195 169.954 52.3555 169.698 52.3555 169.399C52.3555 169.068 52.4462 168.78 52.6275 168.535C52.8195 168.29 53.0115 168.098 53.2035 167.959V167.895C52.9582 167.682 52.7288 167.394 52.5155 167.031C52.3022 166.668 52.1955 166.258 52.1955 165.799C52.1955 165.234 52.3288 164.743 52.5955 164.327C52.8728 163.911 53.2302 163.591 53.6675 163.367C54.1155 163.143 54.6008 163.031 55.1235 163.031C55.3368 163.031 55.5395 163.052 55.7315 163.095C55.9235 163.127 56.0888 163.17 56.2275 163.223H58.9315V164.231H57.3155V164.295C57.5075 164.466 57.6622 164.679 57.7795 164.935C57.9075 165.191 57.9715 165.495 57.9715 165.847C57.9715 166.402 57.8435 166.882 57.5875 167.287C57.3315 167.682 56.9902 167.991 56.5635 168.215C56.1368 168.428 55.6568 168.535 55.1235 168.535C54.9315 168.535 54.7342 168.514 54.5315 168.471C54.3288 168.418 54.1368 168.348 53.9555 168.263C53.8275 168.38 53.7102 168.508 53.6035 168.647C53.5075 168.786 53.4595 168.967 53.4595 169.191C53.4595 169.436 53.5555 169.639 53.7475 169.799C53.9502 169.959 54.3128 170.039 54.8355 170.039H56.3395C57.2462 170.039 57.9235 170.188 58.3715 170.487C58.8302 170.775 59.0595 171.244 59.0595 171.895C59.0595 172.375 58.8995 172.818 58.5795 173.223C58.2595 173.628 57.8008 173.954 57.2035 174.199C56.6168 174.455 55.9235 174.583 55.1235 174.583ZM55.1235 167.655C55.4222 167.655 55.6942 167.58 55.9395 167.431C56.1955 167.271 56.3982 167.052 56.5475 166.775C56.6968 166.498 56.7715 166.172 56.7715 165.799C56.7715 165.223 56.6115 164.78 56.2915 164.471C55.9715 164.151 55.5822 163.991 55.1235 163.991C54.6648 163.991 54.2755 164.151 53.9555 164.471C53.6355 164.78 53.4755 165.223 53.4755 165.799C53.4755 166.172 53.5502 166.498 53.6995 166.775C53.8488 167.052 54.0462 167.271 54.2915 167.431C54.5475 167.58 54.8248 167.655 55.1235 167.655ZM55.3155 173.671C55.8062 173.671 56.2328 173.596 56.5955 173.447C56.9688 173.298 57.2568 173.1 57.4595 172.855C57.6728 172.61 57.7795 172.354 57.7795 172.087C57.7795 171.724 57.6408 171.474 57.3635 171.335C57.0968 171.196 56.7128 171.127 56.2115 171.127H54.8675C54.7182 171.127 54.5528 171.116 54.3715 171.095C54.2008 171.074 54.0302 171.042 53.8595 170.999C53.5715 171.202 53.3635 171.415 53.2355 171.639C53.1182 171.863 53.0595 172.087 53.0595 172.311C53.0595 172.727 53.2568 173.058 53.6515 173.303C54.0568 173.548 54.6115 173.671 55.3155 173.671ZM60.562 170.999V163.223H61.65L61.762 164.343H61.81C62.1833 163.97 62.578 163.66 62.994 163.415C63.41 163.159 63.8847 163.031 64.418 163.031C65.2393 163.031 65.8367 163.292 66.21 163.815C66.594 164.327 66.786 165.079 66.786 166.071V170.999H65.474V166.247C65.474 165.511 65.3567 164.983 65.122 164.663C64.898 164.332 64.5247 164.167 64.002 164.167C63.6073 164.167 63.25 164.268 62.93 164.471C62.6207 164.674 62.2687 164.972 61.874 165.367V170.999H60.562ZM71.344 171.191C70.7787 171.191 70.24 171.095 69.728 170.903C69.2267 170.7 68.8 170.423 68.448 170.071L69.056 169.303C69.3973 169.58 69.7493 169.794 70.112 169.943C70.4853 170.092 70.912 170.167 71.392 170.167C71.904 170.167 72.288 170.05 72.544 169.815C72.8 169.57 72.928 169.282 72.928 168.951C72.928 168.684 72.8373 168.466 72.656 168.295C72.4853 168.114 72.2667 167.964 72 167.847C71.744 167.719 71.4667 167.602 71.168 167.495C70.784 167.356 70.416 167.196 70.064 167.015C69.712 166.823 69.424 166.588 69.2 166.311C68.9867 166.023 68.88 165.666 68.88 165.239C68.88 164.61 69.1147 164.087 69.584 163.671C70.064 163.244 70.7253 163.031 71.568 163.031C72.048 163.031 72.496 163.116 72.912 163.287C73.328 163.447 73.6853 163.655 73.984 163.911L73.376 164.663C73.0987 164.471 72.816 164.322 72.528 164.215C72.24 164.108 71.92 164.055 71.568 164.055C71.0773 164.055 70.7147 164.167 70.48 164.391C70.256 164.615 70.144 164.876 70.144 165.175C70.144 165.41 70.2133 165.607 70.352 165.767C70.4907 165.916 70.6827 166.05 70.928 166.167C71.184 166.284 71.472 166.396 71.792 166.503C72.1973 166.652 72.5813 166.823 72.944 167.015C73.3173 167.196 73.616 167.436 73.84 167.735C74.0747 168.023 74.192 168.402 74.192 168.871C74.192 169.298 74.08 169.687 73.856 170.039C73.6427 170.38 73.3227 170.658 72.896 170.871C72.48 171.084 71.9627 171.191 71.344 171.191ZM79.3463 174.343C79.1756 174.343 79.0103 174.327 78.8503 174.295C78.7009 174.263 78.5623 174.226 78.4342 174.183L78.7223 173.159C78.8183 173.191 78.9143 173.212 79.0103 173.223C79.1063 173.244 79.1969 173.255 79.2823 173.255C79.7303 173.255 80.0929 173.095 80.3703 172.775C80.6583 172.466 80.8823 172.071 81.0423 171.591L81.2183 171.015L78.0983 163.223H79.4583L81.0423 167.527C81.1703 167.858 81.2983 168.215 81.4263 168.599C81.5543 168.983 81.6769 169.356 81.7943 169.719H81.8583C81.9756 169.356 82.0876 168.988 82.1943 168.615C82.3116 168.231 82.4183 167.868 82.5143 167.527L83.9063 163.223H85.1863L82.2583 171.639C82.0769 172.151 81.8583 172.61 81.6023 173.015C81.3463 173.431 81.0369 173.756 80.6743 173.991C80.3116 174.226 79.8689 174.343 79.3463 174.343ZM89.7765 171.191C89.0832 171.191 88.4485 171.031 87.8725 170.711C87.3072 170.38 86.8592 169.916 86.5285 169.319C86.1978 168.711 86.0325 167.975 86.0325 167.111C86.0325 166.268 86.2032 165.543 86.5445 164.935C86.8858 164.327 87.3232 163.858 87.8565 163.527C88.3898 163.196 88.9552 163.031 89.5525 163.031C90.2138 163.031 90.7738 163.186 91.2325 163.495C91.7018 163.794 92.0538 164.215 92.2885 164.759C92.5232 165.303 92.6405 165.943 92.6405 166.679C92.6405 166.818 92.6352 166.951 92.6245 167.079C92.6245 167.207 92.6085 167.335 92.5765 167.463H86.9765V166.423H91.4565C91.4565 165.676 91.2912 165.106 90.9605 164.711C90.6405 164.306 90.1765 164.103 89.5685 164.103C89.2165 164.103 88.8698 164.204 88.5285 164.407C88.1872 164.599 87.9045 164.914 87.6805 165.351C87.4672 165.788 87.3605 166.37 87.3605 167.095C87.3605 167.756 87.4725 168.311 87.6965 168.759C87.9312 169.207 88.2458 169.548 88.6405 169.783C89.0352 170.007 89.4672 170.119 89.9365 170.119C90.3098 170.119 90.6565 170.066 90.9765 169.959C91.3072 169.852 91.6058 169.708 91.8725 169.527L92.3525 170.391C92.0112 170.626 91.6272 170.818 91.2005 170.967C90.7845 171.116 90.3098 171.191 89.7765 171.191ZM96.8538 171.143C96.0324 171.143 95.4564 170.903 95.1258 170.423C94.7951 169.943 94.6298 169.319 94.6298 168.551V164.295H93.4778V163.303L94.6938 163.223L94.8538 160.727H95.9578V163.223H98.0698V164.295H95.9578V168.567C95.9578 169.036 96.0431 169.404 96.2138 169.671C96.3951 169.938 96.7098 170.071 97.1578 170.071C97.2964 170.071 97.4404 170.06 97.5898 170.039C97.7391 170.007 97.8884 169.954 98.0378 169.879L98.3258 170.807C98.1231 170.903 97.8938 170.983 97.6378 171.047C97.3818 171.111 97.1204 171.143 96.8538 171.143ZM102.359 167.431V166.519H113.847V167.431H102.359ZM121.463 171.143C120.642 171.143 120.066 170.903 119.735 170.423C119.404 169.943 119.239 169.319 119.239 168.551V164.295H118.087V163.303L119.303 163.223L119.463 160.727H120.567V163.223H122.679V164.295H120.567V168.567C120.567 169.036 120.652 169.404 120.823 169.671C121.004 169.938 121.319 170.071 121.767 170.071C121.906 170.071 122.05 170.06 122.199 170.039C122.348 170.007 122.498 169.954 122.647 169.879L122.935 170.807C122.732 170.903 122.503 170.983 122.247 171.047C121.991 171.111 121.73 171.143 121.463 171.143ZM124.421 170.999V159.607H125.733V162.711L125.685 164.311C126.059 163.959 126.448 163.66 126.853 163.415C127.269 163.159 127.744 163.031 128.277 163.031C129.099 163.031 129.696 163.292 130.069 163.815C130.453 164.327 130.645 165.079 130.645 166.071V170.999H129.333V166.247C129.333 165.511 129.216 164.983 128.981 164.663C128.757 164.332 128.384 164.167 127.861 164.167C127.467 164.167 127.109 164.268 126.789 164.471C126.48 164.674 126.128 164.972 125.733 165.367V170.999H124.421ZM136.277 171.191C135.583 171.191 134.949 171.031 134.373 170.711C133.807 170.38 133.359 169.916 133.029 169.319C132.698 168.711 132.533 167.975 132.533 167.111C132.533 166.268 132.703 165.543 133.045 164.935C133.386 164.327 133.823 163.858 134.357 163.527C134.89 163.196 135.455 163.031 136.053 163.031C136.714 163.031 137.274 163.186 137.733 163.495C138.202 163.794 138.554 164.215 138.789 164.759C139.023 165.303 139.141 165.943 139.141 166.679C139.141 166.818 139.135 166.951 139.125 167.079C139.125 167.207 139.109 167.335 139.077 167.463H133.477V166.423H137.957C137.957 165.676 137.791 165.106 137.461 164.711C137.141 164.306 136.677 164.103 136.069 164.103C135.717 164.103 135.37 164.204 135.029 164.407C134.687 164.599 134.405 164.914 134.181 165.351C133.967 165.788 133.861 166.37 133.861 167.095C133.861 167.756 133.973 168.311 134.197 168.759C134.431 169.207 134.746 169.548 135.141 169.783C135.535 170.007 135.967 170.119 136.437 170.119C136.81 170.119 137.157 170.066 137.477 169.959C137.807 169.852 138.106 169.708 138.373 169.527L138.853 170.391C138.511 170.626 138.127 170.818 137.701 170.967C137.285 171.116 136.81 171.191 136.277 171.191ZM141.268 174.343C141.097 174.343 140.932 174.327 140.772 174.295C140.623 174.263 140.484 174.226 140.356 174.183L140.644 173.159C140.74 173.191 140.836 173.212 140.932 173.223C141.028 173.244 141.119 173.255 141.204 173.255C141.652 173.255 142.015 173.095 142.292 172.775C142.58 172.466 142.804 172.071 142.964 171.591L143.14 171.015L140.02 163.223H141.38L142.964 167.527C143.092 167.858 143.22 168.215 143.348 168.599C143.476 168.983 143.599 169.356 143.716 169.719H143.78C143.897 169.356 144.009 168.988 144.116 168.615C144.233 168.231 144.34 167.868 144.436 167.527L145.828 163.223H147.108L144.18 171.639C143.999 172.151 143.78 172.61 143.524 173.015C143.268 173.431 142.959 173.756 142.596 173.991C142.233 174.226 141.791 174.343 141.268 174.343ZM148.673 164.103L148.305 163.495C148.71 163.228 149.009 162.94 149.201 162.631C149.404 162.322 149.505 161.938 149.505 161.479L149.329 160.423L149.985 161.239C149.889 161.335 149.793 161.404 149.697 161.447C149.612 161.49 149.505 161.511 149.377 161.511C149.153 161.511 148.956 161.442 148.785 161.303C148.614 161.164 148.529 160.967 148.529 160.711C148.529 160.434 148.609 160.215 148.769 160.055C148.929 159.895 149.132 159.815 149.377 159.815C149.697 159.815 149.942 159.943 150.113 160.199C150.294 160.444 150.385 160.802 150.385 161.271C150.385 161.911 150.236 162.466 149.937 162.935C149.649 163.394 149.228 163.783 148.673 164.103ZM153.985 171.143C153.655 171.143 153.388 171.079 153.185 170.951C152.983 170.812 152.833 170.615 152.737 170.359C152.641 170.092 152.593 169.772 152.593 169.399V159.607H153.905V169.495C153.905 169.708 153.943 169.858 154.017 169.943C154.092 170.018 154.183 170.055 154.289 170.055C154.332 170.055 154.369 170.055 154.401 170.055C154.444 170.044 154.497 170.034 154.561 170.023L154.753 171.015C154.657 171.047 154.545 171.074 154.417 171.095C154.3 171.127 154.156 171.143 153.985 171.143ZM158.063 171.143C157.733 171.143 157.466 171.079 157.263 170.951C157.061 170.812 156.911 170.615 156.815 170.359C156.719 170.092 156.671 169.772 156.671 169.399V159.607H157.983V169.495C157.983 169.708 158.021 169.858 158.095 169.943C158.17 170.018 158.261 170.055 158.367 170.055C158.41 170.055 158.447 170.055 158.479 170.055C158.522 170.044 158.575 170.034 158.639 170.023L158.831 171.015C158.735 171.047 158.623 171.074 158.495 171.095C158.378 171.127 158.234 171.143 158.063 171.143ZM165.745 171.191C165.318 171.191 164.929 171.106 164.577 170.935C164.235 170.754 163.963 170.503 163.761 170.183C163.558 169.852 163.457 169.452 163.457 168.983C163.457 168.108 163.841 167.447 164.609 166.999C165.377 166.551 166.593 166.236 168.257 166.055C168.246 165.735 168.193 165.426 168.097 165.127C168.011 164.828 167.851 164.588 167.617 164.407C167.382 164.226 167.057 164.135 166.641 164.135C166.193 164.135 165.771 164.22 165.377 164.391C164.982 164.551 164.63 164.732 164.321 164.935L163.809 164.039C164.043 163.879 164.321 163.724 164.641 163.575C164.961 163.415 165.307 163.287 165.681 163.191C166.054 163.084 166.449 163.031 166.865 163.031C167.494 163.031 168.006 163.164 168.401 163.431C168.806 163.687 169.099 164.055 169.281 164.535C169.473 165.015 169.569 165.58 169.569 166.231V170.999H168.481L168.369 170.071H168.321C167.947 170.38 167.547 170.647 167.121 170.871C166.694 171.084 166.235 171.191 165.745 171.191ZM166.113 170.103C166.497 170.103 166.854 170.018 167.185 169.847C167.526 169.676 167.883 169.426 168.257 169.095V166.999C167.382 167.106 166.689 167.244 166.177 167.415C165.675 167.575 165.313 167.778 165.089 168.023C164.865 168.268 164.753 168.562 164.753 168.903C164.753 169.33 164.886 169.639 165.153 169.831C165.419 170.012 165.739 170.103 166.113 170.103ZM172.015 174.279V163.223H173.103L173.215 164.119H173.263C173.615 163.82 174.004 163.564 174.431 163.351C174.858 163.138 175.295 163.031 175.743 163.031C176.404 163.031 176.964 163.196 177.423 163.527C177.882 163.847 178.228 164.306 178.463 164.903C178.698 165.49 178.815 166.188 178.815 166.999C178.815 167.874 178.655 168.626 178.335 169.255C178.026 169.884 177.615 170.364 177.103 170.695C176.591 171.026 176.042 171.191 175.455 171.191C175.103 171.191 174.746 171.111 174.383 170.951C174.02 170.791 173.658 170.572 173.295 170.295L173.327 171.655V174.279H172.015ZM175.231 170.087C175.658 170.087 176.036 169.964 176.367 169.719C176.708 169.474 176.975 169.122 177.167 168.663C177.359 168.194 177.455 167.639 177.455 166.999C177.455 166.434 177.386 165.938 177.247 165.511C177.108 165.074 176.89 164.738 176.591 164.503C176.292 164.258 175.898 164.135 175.407 164.135C175.087 164.135 174.756 164.226 174.415 164.407C174.074 164.578 173.711 164.839 173.327 165.191V169.271C173.69 169.57 174.031 169.783 174.351 169.911C174.682 170.028 174.975 170.087 175.231 170.087ZM180.89 174.279V163.223H181.978L182.09 164.119H182.138C182.49 163.82 182.879 163.564 183.306 163.351C183.733 163.138 184.17 163.031 184.618 163.031C185.279 163.031 185.839 163.196 186.298 163.527C186.757 163.847 187.103 164.306 187.338 164.903C187.573 165.49 187.69 166.188 187.69 166.999C187.69 167.874 187.53 168.626 187.21 169.255C186.901 169.884 186.49 170.364 185.978 170.695C185.466 171.026 184.917 171.191 184.33 171.191C183.978 171.191 183.621 171.111 183.258 170.951C182.895 170.791 182.533 170.572 182.17 170.295L182.202 171.655V174.279H180.89ZM184.106 170.087C184.533 170.087 184.911 169.964 185.242 169.719C185.583 169.474 185.85 169.122 186.042 168.663C186.234 168.194 186.33 167.639 186.33 166.999C186.33 166.434 186.261 165.938 186.122 165.511C185.983 165.074 185.765 164.738 185.466 164.503C185.167 164.258 184.773 164.135 184.282 164.135C183.962 164.135 183.631 164.226 183.29 164.407C182.949 164.578 182.586 164.839 182.202 165.191V169.271C182.565 169.57 182.906 169.783 183.226 169.911C183.557 170.028 183.85 170.087 184.106 170.087ZM192.917 171.191C192.224 171.191 191.589 171.031 191.013 170.711C190.448 170.38 190 169.916 189.669 169.319C189.338 168.711 189.173 167.975 189.173 167.111C189.173 166.268 189.344 165.543 189.685 164.935C190.026 164.327 190.464 163.858 190.997 163.527C191.53 163.196 192.096 163.031 192.693 163.031C193.354 163.031 193.914 163.186 194.373 163.495C194.842 163.794 195.194 164.215 195.429 164.759C195.664 165.303 195.781 165.943 195.781 166.679C195.781 166.818 195.776 166.951 195.765 167.079C195.765 167.207 195.749 167.335 195.717 167.463H190.117V166.423H194.597C194.597 165.676 194.432 165.106 194.101 164.711C193.781 164.306 193.317 164.103 192.709 164.103C192.357 164.103 192.01 164.204 191.669 164.407C191.328 164.599 191.045 164.914 190.821 165.351C190.608 165.788 190.501 166.37 190.501 167.095C190.501 167.756 190.613 168.311 190.837 168.759C191.072 169.207 191.386 169.548 191.781 169.783C192.176 170.007 192.608 170.119 193.077 170.119C193.45 170.119 193.797 170.066 194.117 169.959C194.448 169.852 194.746 169.708 195.013 169.527L195.493 170.391C195.152 170.626 194.768 170.818 194.341 170.967C193.925 171.116 193.45 171.191 192.917 171.191ZM199.276 171.191C198.849 171.191 198.46 171.106 198.108 170.935C197.767 170.754 197.495 170.503 197.292 170.183C197.089 169.852 196.988 169.452 196.988 168.983C196.988 168.108 197.372 167.447 198.14 166.999C198.908 166.551 200.124 166.236 201.788 166.055C201.777 165.735 201.724 165.426 201.628 165.127C201.543 164.828 201.383 164.588 201.148 164.407C200.913 164.226 200.588 164.135 200.172 164.135C199.724 164.135 199.303 164.22 198.908 164.391C198.513 164.551 198.161 164.732 197.852 164.935L197.34 164.039C197.575 163.879 197.852 163.724 198.172 163.575C198.492 163.415 198.839 163.287 199.212 163.191C199.585 163.084 199.98 163.031 200.396 163.031C201.025 163.031 201.537 163.164 201.932 163.431C202.337 163.687 202.631 164.055 202.812 164.535C203.004 165.015 203.1 165.58 203.1 166.231V170.999H202.012L201.9 170.071H201.852C201.479 170.38 201.079 170.647 200.652 170.871C200.225 171.084 199.767 171.191 199.276 171.191ZM199.644 170.103C200.028 170.103 200.385 170.018 200.716 169.847C201.057 169.676 201.415 169.426 201.788 169.095V166.999C200.913 167.106 200.22 167.244 199.708 167.415C199.207 167.575 198.844 167.778 198.62 168.023C198.396 168.268 198.284 168.562 198.284 168.903C198.284 169.33 198.417 169.639 198.684 169.831C198.951 170.012 199.271 170.103 199.644 170.103ZM205.546 170.999V163.223H206.634L206.746 164.631H206.794C207.05 164.14 207.37 163.751 207.754 163.463C208.138 163.175 208.554 163.031 209.002 163.031C209.173 163.031 209.322 163.042 209.45 163.063C209.578 163.084 209.706 163.127 209.834 163.191L209.546 164.311C209.429 164.279 209.317 164.258 209.21 164.247C209.114 164.226 208.986 164.215 208.826 164.215C208.496 164.215 208.149 164.348 207.786 164.615C207.434 164.882 207.125 165.346 206.858 166.007V170.999H205.546ZM214.296 170.999V159.607H215.608V162.711L215.56 164.311C215.934 163.959 216.323 163.66 216.728 163.415C217.144 163.159 217.619 163.031 218.152 163.031C218.974 163.031 219.571 163.292 219.944 163.815C220.328 164.327 220.52 165.079 220.52 166.071V170.999H219.208V166.247C219.208 165.511 219.091 164.983 218.856 164.663C218.632 164.332 218.259 164.167 217.736 164.167C217.342 164.167 216.984 164.268 216.664 164.471C216.355 164.674 216.003 164.972 215.608 165.367V170.999H214.296ZM226.152 171.191C225.458 171.191 224.824 171.031 224.248 170.711C223.682 170.38 223.234 169.916 222.904 169.319C222.573 168.711 222.408 167.975 222.408 167.111C222.408 166.268 222.578 165.543 222.92 164.935C223.261 164.327 223.698 163.858 224.232 163.527C224.765 163.196 225.33 163.031 225.928 163.031C226.589 163.031 227.149 163.186 227.608 163.495C228.077 163.794 228.429 164.215 228.664 164.759C228.898 165.303 229.016 165.943 229.016 166.679C229.016 166.818 229.01 166.951 229 167.079C229 167.207 228.984 167.335 228.952 167.463H223.352V166.423H227.832C227.832 165.676 227.666 165.106 227.336 164.711C227.016 164.306 226.552 164.103 225.944 164.103C225.592 164.103 225.245 164.204 224.904 164.407C224.562 164.599 224.28 164.914 224.056 165.351C223.842 165.788 223.736 166.37 223.736 167.095C223.736 167.756 223.848 168.311 224.072 168.759C224.306 169.207 224.621 169.548 225.016 169.783C225.41 170.007 225.842 170.119 226.312 170.119C226.685 170.119 227.032 170.066 227.352 169.959C227.682 169.852 227.981 169.708 228.248 169.527L228.728 170.391C228.386 170.626 228.002 170.818 227.576 170.967C227.16 171.116 226.685 171.191 226.152 171.191ZM230.937 170.999V163.223H232.025L232.137 164.631H232.185C232.441 164.14 232.761 163.751 233.145 163.463C233.529 163.175 233.945 163.031 234.393 163.031C234.564 163.031 234.713 163.042 234.841 163.063C234.969 163.084 235.097 163.127 235.225 163.191L234.937 164.311C234.82 164.279 234.708 164.258 234.601 164.247C234.505 164.226 234.377 164.215 234.217 164.215C233.886 164.215 233.54 164.348 233.177 164.615C232.825 164.882 232.516 165.346 232.249 166.007V170.999H230.937ZM239.48 171.191C238.786 171.191 238.152 171.031 237.576 170.711C237.01 170.38 236.562 169.916 236.232 169.319C235.901 168.711 235.736 167.975 235.736 167.111C235.736 166.268 235.906 165.543 236.248 164.935C236.589 164.327 237.026 163.858 237.56 163.527C238.093 163.196 238.658 163.031 239.256 163.031C239.917 163.031 240.477 163.186 240.936 163.495C241.405 163.794 241.757 164.215 241.992 164.759C242.226 165.303 242.344 165.943 242.344 166.679C242.344 166.818 242.338 166.951 242.328 167.079C242.328 167.207 242.312 167.335 242.28 167.463H236.68V166.423H241.16C241.16 165.676 240.994 165.106 240.664 164.711C240.344 164.306 239.88 164.103 239.272 164.103C238.92 164.103 238.573 164.204 238.232 164.407C237.89 164.599 237.608 164.914 237.384 165.351C237.17 165.788 237.064 166.37 237.064 167.095C237.064 167.756 237.176 168.311 237.4 168.759C237.634 169.207 237.949 169.548 238.344 169.783C238.738 170.007 239.17 170.119 239.64 170.119C240.013 170.119 240.36 170.066 240.68 169.959C241.01 169.852 241.309 169.708 241.576 169.527L242.056 170.391C241.714 170.626 241.33 170.818 240.904 170.967C240.488 171.116 240.013 171.191 239.48 171.191ZM250.492 171.191C249.863 171.191 249.271 171.031 248.716 170.711C248.172 170.391 247.73 169.927 247.388 169.319C247.058 168.711 246.892 167.98 246.892 167.127C246.892 166.252 247.058 165.511 247.388 164.903C247.73 164.295 248.172 163.831 248.716 163.511C249.271 163.191 249.863 163.031 250.492 163.031C251.132 163.031 251.724 163.191 252.268 163.511C252.812 163.831 253.25 164.295 253.58 164.903C253.922 165.511 254.092 166.252 254.092 167.127C254.092 167.98 253.922 168.711 253.58 169.319C253.25 169.927 252.812 170.391 252.268 170.711C251.724 171.031 251.132 171.191 250.492 171.191ZM250.492 170.103C250.94 170.103 251.335 169.98 251.676 169.735C252.018 169.479 252.279 169.127 252.46 168.679C252.642 168.231 252.732 167.714 252.732 167.127C252.732 166.53 252.642 166.007 252.46 165.559C252.279 165.1 252.018 164.748 251.676 164.503C251.335 164.247 250.94 164.119 250.492 164.119C250.044 164.119 249.65 164.247 249.308 164.503C248.978 164.748 248.716 165.1 248.524 165.559C248.343 166.007 248.252 166.53 248.252 167.127C248.252 167.714 248.343 168.231 248.524 168.679C248.716 169.127 248.978 169.479 249.308 169.735C249.65 169.98 250.044 170.103 250.492 170.103ZM256.14 170.999V163.223H257.228L257.34 164.343H257.388C257.761 163.97 258.156 163.66 258.572 163.415C258.988 163.159 259.463 163.031 259.996 163.031C260.817 163.031 261.415 163.292 261.788 163.815C262.172 164.327 262.364 165.079 262.364 166.071V170.999H261.052V166.247C261.052 165.511 260.935 164.983 260.7 164.663C260.476 164.332 260.103 164.167 259.58 164.167C259.185 164.167 258.828 164.268 258.508 164.471C258.199 164.674 257.847 164.972 257.452 165.367V170.999H256.14ZM267.978 171.191C267.285 171.191 266.661 171.031 266.106 170.711C265.551 170.391 265.114 169.927 264.794 169.319C264.474 168.711 264.314 167.98 264.314 167.127C264.314 166.252 264.485 165.511 264.826 164.903C265.178 164.295 265.637 163.831 266.202 163.511C266.778 163.191 267.397 163.031 268.058 163.031C268.57 163.031 269.007 163.116 269.37 163.287C269.743 163.458 270.063 163.676 270.33 163.943L269.674 164.759C269.482 164.567 269.253 164.418 268.986 164.311C268.73 164.194 268.437 164.135 268.106 164.135C267.647 164.135 267.231 164.263 266.858 164.519C266.495 164.764 266.207 165.111 265.994 165.559C265.781 166.007 265.674 166.53 265.674 167.127C265.674 167.714 265.775 168.231 265.978 168.679C266.181 169.127 266.463 169.479 266.826 169.735C267.189 169.98 267.61 170.103 268.09 170.103C268.453 170.103 268.789 170.034 269.098 169.895C269.407 169.756 269.674 169.58 269.898 169.367L270.474 170.167C270.143 170.476 269.77 170.727 269.354 170.919C268.938 171.1 268.479 171.191 267.978 171.191ZM275.011 171.191C274.318 171.191 273.683 171.031 273.107 170.711C272.542 170.38 272.094 169.916 271.763 169.319C271.432 168.711 271.267 167.975 271.267 167.111C271.267 166.268 271.438 165.543 271.779 164.935C272.12 164.327 272.558 163.858 273.091 163.527C273.624 163.196 274.19 163.031 274.787 163.031C275.448 163.031 276.008 163.186 276.467 163.495C276.936 163.794 277.288 164.215 277.523 164.759C277.758 165.303 277.875 165.943 277.875 166.679C277.875 166.818 277.87 166.951 277.859 167.079C277.859 167.207 277.843 167.335 277.811 167.463H272.211V166.423H276.691C276.691 165.676 276.526 165.106 276.195 164.711C275.875 164.306 275.411 164.103 274.803 164.103C274.451 164.103 274.104 164.204 273.763 164.407C273.422 164.599 273.139 164.914 272.915 165.351C272.702 165.788 272.595 166.37 272.595 167.095C272.595 167.756 272.707 168.311 272.931 168.759C273.166 169.207 273.48 169.548 273.875 169.783C274.27 170.007 274.702 170.119 275.171 170.119C275.544 170.119 275.891 170.066 276.211 169.959C276.542 169.852 276.84 169.708 277.107 169.527L277.587 170.391C277.246 170.626 276.862 170.818 276.435 170.967C276.019 171.116 275.544 171.191 275.011 171.191ZM284.792 171.191C284.365 171.191 283.976 171.106 283.624 170.935C283.282 170.754 283.01 170.503 282.808 170.183C282.605 169.852 282.504 169.452 282.504 168.983C282.504 168.108 282.888 167.447 283.656 166.999C284.424 166.551 285.64 166.236 287.304 166.055C287.293 165.735 287.24 165.426 287.144 165.127C287.058 164.828 286.898 164.588 286.664 164.407C286.429 164.226 286.104 164.135 285.688 164.135C285.24 164.135 284.818 164.22 284.424 164.391C284.029 164.551 283.677 164.732 283.368 164.935L282.856 164.039C283.09 163.879 283.368 163.724 283.688 163.575C284.008 163.415 284.354 163.287 284.728 163.191C285.101 163.084 285.496 163.031 285.911 163.031C286.541 163.031 287.053 163.164 287.448 163.431C287.853 163.687 288.146 164.055 288.328 164.535C288.52 165.015 288.616 165.58 288.616 166.231V170.999H287.528L287.416 170.071H287.368C286.994 170.38 286.594 170.647 286.168 170.871C285.741 171.084 285.282 171.191 284.792 171.191ZM285.16 170.103C285.544 170.103 285.901 170.018 286.232 169.847C286.573 169.676 286.93 169.426 287.304 169.095V166.999C286.429 167.106 285.736 167.244 285.224 167.415C284.722 167.575 284.36 167.778 284.136 168.023C283.912 168.268 283.799 168.562 283.799 168.903C283.799 169.33 283.933 169.639 284.2 169.831C284.466 170.012 284.786 170.103 285.16 170.103ZM292.742 170.999L289.942 163.223H291.302L292.774 167.639C292.891 168.012 293.009 168.396 293.126 168.791C293.254 169.175 293.377 169.554 293.494 169.927H293.558C293.665 169.554 293.782 169.175 293.91 168.791C294.038 168.396 294.155 168.012 294.262 167.639L295.734 163.223H297.03L294.278 170.999H292.742ZM300.01 171.191C299.584 171.191 299.194 171.106 298.842 170.935C298.501 170.754 298.229 170.503 298.026 170.183C297.824 169.852 297.722 169.452 297.722 168.983C297.722 168.108 298.106 167.447 298.874 166.999C299.642 166.551 300.858 166.236 302.522 166.055C302.512 165.735 302.458 165.426 302.362 165.127C302.277 164.828 302.117 164.588 301.882 164.407C301.648 164.226 301.322 164.135 300.906 164.135C300.458 164.135 300.037 164.22 299.642 164.391C299.248 164.551 298.896 164.732 298.586 164.935L298.074 164.039C298.309 163.879 298.586 163.724 298.906 163.575C299.226 163.415 299.573 163.287 299.946 163.191C300.32 163.084 300.714 163.031 301.13 163.031C301.76 163.031 302.272 163.164 302.666 163.431C303.072 163.687 303.365 164.055 303.546 164.535C303.738 165.015 303.834 165.58 303.834 166.231V170.999H302.746L302.634 170.071H302.586C302.213 170.38 301.813 170.647 301.386 170.871C300.96 171.084 300.501 171.191 300.01 171.191ZM300.378 170.103C300.762 170.103 301.12 170.018 301.45 169.847C301.792 169.676 302.149 169.426 302.522 169.095V166.999C301.648 167.106 300.954 167.244 300.442 167.415C299.941 167.575 299.578 167.778 299.354 168.023C299.13 168.268 299.018 168.562 299.018 168.903C299.018 169.33 299.152 169.639 299.418 169.831C299.685 170.012 300.005 170.103 300.378 170.103ZM306.281 170.999V163.223H307.593V170.999H306.281ZM306.937 161.623C306.681 161.623 306.467 161.543 306.297 161.383C306.137 161.223 306.057 161.015 306.057 160.759C306.057 160.503 306.137 160.295 306.297 160.135C306.467 159.975 306.681 159.895 306.937 159.895C307.193 159.895 307.401 159.975 307.561 160.135C307.731 160.295 307.817 160.503 307.817 160.759C307.817 161.015 307.731 161.223 307.561 161.383C307.401 161.543 307.193 161.623 306.937 161.623ZM311.61 171.143C311.28 171.143 311.013 171.079 310.81 170.951C310.608 170.812 310.458 170.615 310.362 170.359C310.266 170.092 310.218 169.772 310.218 169.399V159.607H311.53V169.495C311.53 169.708 311.568 169.858 311.642 169.943C311.717 170.018 311.808 170.055 311.914 170.055C311.957 170.055 311.994 170.055 312.026 170.055C312.069 170.044 312.122 170.034 312.186 170.023L312.378 171.015C312.282 171.047 312.17 171.074 312.042 171.095C311.925 171.127 311.781 171.143 311.61 171.143ZM316.088 171.191C315.662 171.191 315.272 171.106 314.92 170.935C314.579 170.754 314.307 170.503 314.104 170.183C313.902 169.852 313.8 169.452 313.8 168.983C313.8 168.108 314.184 167.447 314.952 166.999C315.72 166.551 316.936 166.236 318.6 166.055C318.59 165.735 318.536 165.426 318.44 165.127C318.355 164.828 318.195 164.588 317.96 164.407C317.726 164.226 317.4 164.135 316.984 164.135C316.536 164.135 316.115 164.22 315.72 164.391C315.326 164.551 314.974 164.732 314.664 164.935L314.152 164.039C314.387 163.879 314.664 163.724 314.984 163.575C315.304 163.415 315.651 163.287 316.024 163.191C316.398 163.084 316.792 163.031 317.208 163.031C317.838 163.031 318.35 163.164 318.744 163.431C319.15 163.687 319.443 164.055 319.624 164.535C319.816 165.015 319.912 165.58 319.912 166.231V170.999H318.824L318.712 170.071H318.664C318.291 170.38 317.891 170.647 317.464 170.871C317.038 171.084 316.579 171.191 316.088 171.191ZM316.456 170.103C316.84 170.103 317.198 170.018 317.528 169.847C317.87 169.676 318.227 169.426 318.6 169.095V166.999C317.726 167.106 317.032 167.244 316.52 167.415C316.019 167.575 315.656 167.778 315.432 168.023C315.208 168.268 315.096 168.562 315.096 168.903C315.096 169.33 315.23 169.639 315.496 169.831C315.763 170.012 316.083 170.103 316.456 170.103ZM325.799 171.191C325.436 171.191 325.063 171.106 324.679 170.935C324.295 170.754 323.927 170.508 323.575 170.199H323.527L323.415 170.999H322.359V159.607H323.671V162.711L323.639 164.119C323.991 163.81 324.375 163.554 324.791 163.351C325.218 163.138 325.644 163.031 326.071 163.031C326.743 163.031 327.308 163.196 327.767 163.527C328.226 163.847 328.572 164.306 328.807 164.903C329.042 165.49 329.159 166.183 329.159 166.983C329.159 167.868 328.999 168.626 328.679 169.255C328.37 169.884 327.959 170.364 327.447 170.695C326.935 171.026 326.386 171.191 325.799 171.191ZM325.575 170.087C326.002 170.087 326.38 169.964 326.711 169.719C327.052 169.474 327.319 169.122 327.511 168.663C327.703 168.194 327.799 167.639 327.799 166.999C327.799 166.434 327.73 165.938 327.591 165.511C327.452 165.074 327.234 164.738 326.935 164.503C326.636 164.258 326.242 164.135 325.751 164.135C325.431 164.135 325.095 164.226 324.743 164.407C324.402 164.578 324.044 164.839 323.671 165.191V169.271C324.012 169.57 324.348 169.783 324.679 169.911C325.02 170.028 325.319 170.087 325.575 170.087ZM332.595 171.143C332.264 171.143 331.997 171.079 331.795 170.951C331.592 170.812 331.443 170.615 331.347 170.359C331.251 170.092 331.203 169.772 331.203 169.399V159.607H332.515V169.495C332.515 169.708 332.552 169.858 332.627 169.943C332.701 170.018 332.792 170.055 332.899 170.055C332.941 170.055 332.979 170.055 333.011 170.055C333.053 170.044 333.107 170.034 333.171 170.023L333.363 171.015C333.267 171.047 333.155 171.074 333.027 171.095C332.909 171.127 332.765 171.143 332.595 171.143ZM338.433 171.191C337.739 171.191 337.105 171.031 336.529 170.711C335.963 170.38 335.515 169.916 335.185 169.319C334.854 168.711 334.689 167.975 334.689 167.111C334.689 166.268 334.859 165.543 335.201 164.935C335.542 164.327 335.979 163.858 336.513 163.527C337.046 163.196 337.611 163.031 338.209 163.031C338.87 163.031 339.43 163.186 339.889 163.495C340.358 163.794 340.71 164.215 340.945 164.759C341.179 165.303 341.297 165.943 341.297 166.679C341.297 166.818 341.291 166.951 341.281 167.079C341.281 167.207 341.265 167.335 341.233 167.463H335.633V166.423H340.113C340.113 165.676 339.947 165.106 339.617 164.711C339.297 164.306 338.833 164.103 338.225 164.103C337.873 164.103 337.526 164.204 337.185 164.407C336.843 164.599 336.561 164.914 336.337 165.351C336.123 165.788 336.017 166.37 336.017 167.095C336.017 167.756 336.129 168.311 336.353 168.759C336.587 169.207 336.902 169.548 337.297 169.783C337.691 170.007 338.123 170.119 338.593 170.119C338.966 170.119 339.313 170.066 339.633 169.959C339.963 169.852 340.262 169.708 340.529 169.527L341.009 170.391C340.667 170.626 340.283 170.818 339.857 170.967C339.441 171.116 338.966 171.191 338.433 171.191ZM343.906 171.191C343.65 171.191 343.426 171.1 343.234 170.919C343.042 170.727 342.946 170.487 342.946 170.199C342.946 169.89 343.042 169.644 343.234 169.463C343.426 169.271 343.65 169.175 343.906 169.175C344.173 169.175 344.397 169.271 344.578 169.463C344.76 169.644 344.85 169.89 344.85 170.199C344.85 170.487 344.76 170.727 344.578 170.919C344.397 171.1 344.173 171.191 343.906 171.191Z" fill="#607493"/>
</svg>
